<?xml version="1.0" encoding="UTF-8"?>
<svg width="128pt" height="128pt" version="1.1" viewBox="0 0 128 128" xmlns="http://www.w3.org/2000/svg">
 <path d="m65.645 66.434c-0.73047-2.9688-3.1641-5.2266-6.1836-5.7266-2.8047-0.375-5.6016 0.76172-7.3438 2.9805-1.75-2.2188-4.5469-3.3555-7.3438-2.9805-3.0234 0.5-5.4531 2.7539-6.1836 5.7266-0.43359 1.7969-0.28906 3.6797 0.39844 5.3906h-1.7656c-0.78516 0-1.4219 0.64062-1.4219 1.4258s0.63672 1.4219 1.4219 1.4219h3.3906c0.93359 1.2031 2.0234 2.2734 3.2383 3.1953 0.87891 0.64844 1.7969 1.25 2.7461 1.7891 1.6641 0.86328 3.1641 2.0195 4.4336 3.4062 0.26953 0.32031 0.66406 0.50391 1.0859 0.50391 0.42187 0 0.81641-0.18359 1.0859-0.50391 1.2656-1.3867 2.7656-2.5391 4.4297-3.4062 0.94922-0.53906 1.8711-1.1406 2.7461-1.7891 6.1836-4.7656 5.7461-9.5781 5.2695-11.43zm-20.055 9.1836c-0.40625-0.30859-0.77344-0.62891-1.125-0.94531 0.55469-0.015625 1.0508-0.35547 1.2656-0.87109l0.87891-2.1016 1.1641 5.3516c-0.75391-0.43359-1.4844-0.91406-2.1836-1.4336zm13.051 0c-0.78516 0.57812-1.6055 1.1094-2.4531 1.5938-1.4531 0.80078-2.8203 1.7656-4.0664 2.8711-0.57422-0.53516-1.1914-1.0234-1.8398-1.4688 0.14453-0.125 0.26172-0.27344 0.34375-0.44531l2.2188-4.5664h1.9844-0.003906c0.38672 0.015626 0.76172-0.12891 1.0352-0.39844 0.27344-0.26562 0.42969-0.63672 0.42969-1.0195 0-0.38672-0.15625-0.75-0.42969-1.0195-0.27344-0.26562-0.64844-0.41016-1.0352-0.39844h-2.875c-0.54688 0-1.0391 0.30859-1.2812 0.80078l-0.81641 1.6758-1.4258-6.5469c-0.13672-0.60156-0.64453-1.0508-1.2617-1.1055-0.60937-0.054688-1.1953 0.28906-1.4336 0.85938l-2.2539 5.3789h-1.3359v-0.003906c-0.87891-1.3906-1.1719-3.0742-0.80859-4.6836 0.44922-1.875 1.9766-3.3008 3.875-3.625 0.21875-0.035156 0.44531-0.054687 0.67188-0.054687 2.1445 0.17578 4.0508 1.4492 5.0234 3.3711 0.26172 0.41406 0.71484 0.66406 1.2031 0.66406 0.48438 0 0.94141-0.25 1.1992-0.66406 1.5312-2.4258 3.6055-3.6406 5.6992-3.3086 1.8984 0.32422 3.4258 1.75 3.875 3.625 0.71094 2.7539-0.83594 5.8438-4.2461 8.4766zm-18.184-21.793c0-0.78516 0.64062-1.4219 1.4258-1.4219h32.855c0.38672-0.015625 0.75391 0.12891 1.0312 0.39844 0.28125 0.26562 0.43359 0.63672 0.43359 1.0195 0 0.38672-0.15625 0.75-0.43359 1.0195-0.27344 0.26562-0.64453 0.41016-1.0312 0.39844h-32.855c-0.37891 0-0.73828-0.14844-1.0039-0.41406-0.26953-0.26562-0.42188-0.62891-0.42188-1.0039zm39.234-1.4219h5.8008c0.76562 0.019531 1.375 0.64844 1.375 1.4219 0 0.76562-0.60938 1.3945-1.375 1.4219h-5.7969c-0.76953-0.023438-1.3789-0.65625-1.3789-1.4219 0-0.76953 0.60938-1.3984 1.3789-1.4219zm-17.18-5.7266c0-0.78516 0.63672-1.4258 1.4219-1.4258h14.551c0.38672-0.011719 0.76172 0.13672 1.0352 0.39844 0.27344 0.26953 0.42969 0.64062 0.42969 1.0234 0 0.37891-0.15625 0.75-0.42969 1.0195-0.27344 0.26562-0.64844 0.41016-1.0352 0.39844h-14.551c-0.375 0-0.73828-0.14844-1.0039-0.41406-0.26563-0.26953-0.41406-0.62891-0.41406-1.0039zm0-5.4648c0-0.37891 0.14844-0.73828 0.41406-1.0039 0.26562-0.26953 0.62891-0.41406 1.0039-0.41406h14.551c0.38672-0.015625 0.76172 0.12891 1.0352 0.39844 0.27344 0.26562 0.42969 0.63672 0.42969 1.0195 0 0.38672-0.15625 0.75-0.42969 1.0195-0.27344 0.26562-0.64844 0.41016-1.0352 0.39844h-14.551c-0.375 0-0.73828-0.14844-1.0039-0.41406-0.26562-0.26953-0.41406-0.62891-0.41406-1.0039zm-18.414 5.4648h1.8359v1.8281h-0.003906c0 1.5547 1.2617 2.8164 2.8164 2.8164h3.0742c1.5508 0 2.8086-1.2617 2.8086-2.8164v-1.8281h1.8281c1.5547-0.003906 2.8086-1.2617 2.8164-2.8164v-3.0742c-0.003907-1.5508-1.2617-2.8086-2.8164-2.8086h-1.8281v-1.8359c0-1.5547-1.2617-2.8086-2.8086-2.8086h-3.0742c-1.5547 0-2.8086 1.2539-2.8164 2.8086v1.8359h-1.8281c-1.5547 0-2.8164 1.2617-2.8164 2.8086v3.0742c0 1.5547 1.2617 2.8086 2.8164 2.8164zm0.03125-5.8594h3.2188c0.37891 0 0.74609-0.14453 1.0117-0.41406 0.26953-0.26562 0.42188-0.625 0.42188-1.0039v-3.2266h3.0156v3.2266c0 0.375 0.14844 0.73828 0.41406 1.0039 0.26562 0.26953 0.625 0.42188 1 0.42188h3.2266v3.0156h-3.2266c-0.78516 0-1.4219 0.64062-1.4219 1.4258v3.2266h-3.0117v-3.2305c0-0.78516-0.63672-1.4258-1.4219-1.4258h-3.2344zm29.215 22.355h-0.003906c0 0.78516-0.63672 1.4219-1.4219 1.4219h-0.75c-0.38672 0.011719-0.76172-0.13672-1.0352-0.39844-0.27344-0.26953-0.43359-0.63672-0.43359-1.0195 0-0.38672 0.16016-0.75391 0.43359-1.0195 0.27344-0.26953 0.64844-0.41406 1.0352-0.39844h0.75c0.375-0.003906 0.73828 0.14453 1.0039 0.41406 0.26562 0.26562 0.41406 0.625 0.41406 1.0039zm-3.5938 10.762h-0.003906c0-0.78516 0.64062-1.4219 1.4258-1.4219h9.9141-0.003907c0.78516 0 1.4219 0.63672 1.4219 1.4219s-0.63672 1.4219-1.4219 1.4219h-9.9102c-0.78516 0-1.4258-0.63672-1.4258-1.4219zm7.5859 13.121h-5.0547c-0.78516 0-1.4219 0.64062-1.4219 1.4258v15.898-0.003906c0 0.78516 0.63672 1.4258 1.4219 1.4258h5.0508c0.78516 0 1.4258-0.64062 1.4258-1.4258v-15.898 0.003907c0-0.78516-0.64062-1.4258-1.4258-1.4258zm-1.4219 15.898h-2.2109v-13.055h2.2031zm19.246-18.504h-5.0508c-0.78516 0-1.4258 0.63672-1.4258 1.4219v18.512c0 0.78516 0.64062 1.4219 1.4258 1.4219h5.0508c0.375 0 0.73438-0.14844 1-0.41406 0.26953-0.26953 0.42188-0.62891 0.42188-1.0039v-18.512c0-0.375-0.14844-0.73438-0.42188-1.0039-0.26562-0.26562-0.625-0.41406-1-0.41406zm-1.4258 18.512h-2.2031v-15.664h2.2109zm-7.4883-13.879h-5.0508c-0.37891 0-0.73828 0.14844-1.0117 0.41406-0.26562 0.26953-0.41406 0.62891-0.41406 1.0117v13.879-0.003907c0 0.78516 0.63672 1.4258 1.4219 1.4258h5.0508c0.375 0 0.73828-0.14844 1.0039-0.42188 0.26562-0.26562 0.41406-0.625 0.41406-1.0039v-13.879 0.003906c0-0.78516-0.63672-1.4219-1.4141-1.4219zm-1.4219 13.879h-2.2109v-11.035h2.2109zm-16.406-9.8516h-5.0508c-0.78516 0-1.4219 0.63672-1.4219 1.4219v9.8516c0 0.78516 0.63672 1.4219 1.4219 1.4219h5.0508c0.78516 0 1.4219-0.63672 1.4219-1.4219v-9.8516c0-0.78516-0.63672-1.4219-1.4219-1.4219zm-1.4219 9.8516h-2.2109v-7.0039h2.2031zm-7.0586-9.5352c0 0.78516-0.64062 1.4219-1.4258 1.4219h-13.02c-0.78516 0-1.4258-0.63672-1.4258-1.4219 0-0.78516 0.64062-1.4219 1.4258-1.4219h13.023-0.003906c0.78516 0 1.4258 0.63672 1.4258 1.4219zm-15.871-3.6914c0-0.78516 0.64062-1.4219 1.4258-1.4219h0.78906c0.76953 0.019531 1.3789 0.64844 1.3789 1.4219 0 0.76562-0.60938 1.3945-1.3789 1.4219h-0.78906c-0.37891 0-0.73828-0.14844-1.0039-0.41406-0.26953-0.26563-0.42188-0.62891-0.42188-1.0039zm15.867 0h0.003906c0 0.375-0.14844 0.73828-0.42188 1.0039-0.26562 0.26562-0.625 0.41406-1.0039 0.41406h-8.7891c-0.38672 0.011718-0.76172-0.13672-1.0352-0.39844-0.27344-0.26953-0.42969-0.63672-0.42969-1.0195 0-0.38672 0.15625-0.75391 0.42969-1.0195 0.27344-0.26953 0.64844-0.41406 1.0352-0.39844h8.8008-0.003907c0.78516 0 1.4219 0.63672 1.4219 1.4219zm-22.207-2.0547c-1.5742 0-2.9961 0.94922-3.6016 2.4062-0.60156 1.4531-0.26953 3.1289 0.84375 4.2461 1.1133 1.1133 2.7891 1.4492 4.2461 0.84375 1.4609-0.60156 2.4102-2.0195 2.4102-3.6016-0.003906-2.1484-1.75-3.8945-3.8984-3.8945zm0 4.9492c-0.42578 0-0.80859-0.25391-0.97656-0.64844-0.16016-0.39453-0.070312-0.85156 0.23047-1.1484 0.30078-0.30078 0.75391-0.39062 1.1484-0.23047 0.39453 0.16406 0.64844 0.55078 0.64844 0.97656 0 0.58594-0.46875 1.0547-1.0547 1.0547zm22.211 9.9062c0 0.375-0.14844 0.73828-0.42188 1.0039-0.26562 0.26563-0.625 0.41406-1.0039 0.41406h-13.02c-0.38672 0.011719-0.76172-0.13672-1.0352-0.39844-0.27344-0.26953-0.42969-0.63672-0.42969-1.0195 0-0.38672 0.15625-0.75391 0.42969-1.0195 0.27344-0.26953 0.64844-0.41406 1.0352-0.39844h13.023-0.003906c0.78516 0 1.4258 0.63672 1.4258 1.4219zm-15.871-3.6992c0.003906-0.78516 0.64062-1.4219 1.4258-1.4219h0.78906c0.78516 0 1.4219 0.63672 1.4219 1.4219 0 0.78516-0.63672 1.4258-1.4219 1.4258h-0.78906c-0.37891 0-0.73828-0.14844-1.0117-0.42188-0.26562-0.26562-0.41406-0.62891-0.41406-1.0039zm15.867 0h0.003906c0 0.78516-0.64062 1.4219-1.4258 1.4219h-8.7891c-0.78516 0-1.4258-0.63672-1.4258-1.4219 0-0.78516 0.64062-1.4258 1.4258-1.4258h8.8008-0.003907c0.78516 0.003906 1.4219 0.64062 1.4219 1.4258zm-22.207-2.0508c-1.5742 0-2.9961 0.94922-3.6016 2.4062-0.60156 1.4531-0.26953 3.1367 0.84375 4.2461 1.1133 1.1133 2.7891 1.4492 4.2461 0.84375 1.4609-0.60156 2.4102-2.0195 2.4102-3.6016-0.003906-2.1484-1.75-3.8906-3.8984-3.8945zm0 4.9492c-0.42578 0-0.80859-0.25391-0.97656-0.64844-0.16016-0.39453-0.070312-0.84375 0.23047-1.1484 0.30078-0.30078 0.75391-0.39062 1.1484-0.23047 0.39453 0.16406 0.64844 0.55078 0.64844 0.97656 0 0.58594-0.46875 1.0547-1.0547 1.0547zm86.906-35.324c-0.011718-7.5469-4.7031-14.285-11.781-16.906v-34.465c0-0.78516-0.64062-1.4258-1.4258-1.4258h-72.102c-0.78516 0-1.4219 0.64062-1.4219 1.4258v7.4336h-8.2109c-0.78516 0-1.4219 0.63672-1.4219 1.4219v7.8281c-5.3711-2.1445-11.434-1.6016-16.34 1.4531-4.9062 3.0586-8.0586 8.2695-8.4961 14.035-0.43359 5.7617 1.8945 11.391 6.2812 15.148 4.3867 3.7656 10.305 5.2148 15.934 3.9102l2.6211 1.1914v45.496c0 0.78516 0.63672 1.4258 1.4219 1.4258h72.102c0.78516 0 1.4258-0.64062 1.4258-1.4258v-7.4336h8.2031c0.78516 0 1.4258-0.63672 1.4258-1.4219v-20.789c7.0703-2.6211 11.77-9.3594 11.781-16.906zm-83.887-49.949h69.254v32.254c-2.2383-0.43359-4.5469-0.43359-6.7852 0v-24.82c0-0.78516-0.64062-1.4219-1.4258-1.4219h-61.043zm45.98 11.699 10.801 10.801h-10.801zm1.1719-2.8516h12.484v12.484zm-62.113 38.039h0.003906c-0.125 0-0.24609 0.015625-0.35937 0.050782-7.5547 1.9883-15.395-2.0156-18.211-9.3008s0.30078-15.52 7.2266-19.125c6.9297-3.6055 15.461-1.4219 19.812 5.0664 4.3438 6.4844 3.125 15.207-2.8438 20.246-0.48437 0.41016-0.63672 1.0938-0.375 1.6719l2.0742 4.5781-6.7344-3.0547v0.003906c-0.18359-0.085937-0.37891-0.125-0.57812-0.12891zm5.3242 48.188 0.003906-42.785 4.2656 1.9336c0.53906 0.25 1.1797 0.14062 1.6016-0.28516 0.42578-0.42188 0.53516-1.0586 0.28516-1.6016l-3.2031-7.0703c4.0703-3.875 6.1133-9.4141 5.5352-15.004-0.57422-5.5859-3.7031-10.594-8.4766-13.559v-7.8516h52.77v15.07c0 0.78516 0.63672 1.4219 1.4219 1.4219h15.074v7.6992c-5.4844 2.0352-9.6445 6.6016-11.172 12.25h-14.035c-0.38672-0.015625-0.76172 0.12891-1.0352 0.39844-0.27344 0.26562-0.42969 0.63672-0.42969 1.0195 0 0.38672 0.15625 0.75 0.42969 1.0195 0.27344 0.26562 0.64844 0.41016 1.0352 0.39844h13.512c-0.058594 0.60547-0.09375 1.2109-0.09375 1.8164 0 0.46484 0.023438 0.92578 0.058594 1.3789-0.26172-0.41016-0.71094-0.65625-1.1992-0.65625h-16.285c-0.38672-0.015625-0.76172 0.12891-1.0352 0.39844-0.27344 0.26562-0.43359 0.63672-0.43359 1.0195 0 0.38672 0.16016 0.75 0.43359 1.0195 0.27344 0.26562 0.64844 0.41016 1.0352 0.39844h16.289-0.003907c0.60156 0 1.1367-0.375 1.3359-0.93359 0.17578 1.1836 0.46484 2.3438 0.875 3.4766h-5.3242c-0.78516 0-1.4219 0.63672-1.4219 1.4219 0 0.78516 0.63672 1.4219 1.4219 1.4219h5.5938c0.31641 0 0.625-0.10547 0.875-0.30469 0.55078 1.0117 1.1992 1.9609 1.9297 2.8438h-21.57c-0.38672-0.015625-0.76172 0.12891-1.0352 0.39844-0.27344 0.26563-0.43359 0.63672-0.43359 1.0195 0 0.38672 0.16016 0.75391 0.43359 1.0195 0.27344 0.26953 0.64844 0.41406 1.0352 0.39844h22.645c0.45312 0 0.88672-0.21875 1.1562-0.59375 1.6055 1.3711 3.4336 2.4453 5.4141 3.1758v28.227zm78.891-8.8555h-6.7734v-18.574c2.2383 0.43359 4.5469 0.43359 6.7852 0zm-3.3867-21.094c-6.1367 0-11.672-3.6953-14.02-9.3711-2.3516-5.6719-1.0508-12.199 3.2891-16.539 4.3398-4.3398 10.871-5.6406 16.539-3.2891 5.6758 2.3516 9.3711 7.8867 9.3711 14.023-0.011719 8.3789-6.8008 15.172-15.18 15.176zm4.0547-15.387c-0.53906-0.20312-1.1562-0.066407-1.5508 0.35547-0.57813 0.80078-1.5156 1.2734-2.5039 1.2734s-1.9219-0.47656-2.5039-1.2734c-0.39453-0.42188-1.0039-0.55859-1.5469-0.35547-2.8281 1.0898-4.0938 4.1016-5.0469 7.1953-0.15625 0.49609-0.019531 1.0352 0.33984 1.4102 2.3008 2.3594 5.4609 3.6953 8.7617 3.6953 3.2969 0 6.4531-1.3359 8.7539-3.6953 0.36328-0.375 0.49609-0.91406 0.34375-1.4102-0.94922-3.0898-2.2188-6.1055-5.0508-7.1953zm-4.0547 9.4531c-2.2461 0.003906-4.4141-0.79688-6.1094-2.2656 0.37891-1.5664 1.1992-2.9961 2.3555-4.125 2.1562 1.8789 5.3594 1.8789 7.5156 0 1.1562 1.1289 1.9766 2.5547 2.3555 4.125-1.6992 1.4688-3.8711 2.2695-6.1133 2.2656zm0-9.8438c2.9141 0 5.0312-3.9766 5.0312-6.6562 0-2.7812-2.25-5.0312-5.0312-5.0312-2.7734 0-5.0312 2.25-5.0312 5.0312 0.003907 2.6797 2.1133 6.6562 5.0312 6.6562zm0-8.8438c1.2031 0 2.1836 0.98047 2.1914 2.1836 0 1.5352-1.3086 3.8164-2.1836 3.8164-0.87891 0-2.1953-2.2812-2.1953-3.8164 0.003907-1.2109 0.98438-2.1836 2.1914-2.1836zm-83.461-11.547v10.719c-0.003906 1.0391-0.84375 1.8789-1.8867 1.8867-1.0391-0.003907-1.8867-0.84375-1.8906-1.8867v-10.719c0.003906-1.0391 0.85156-1.8789 1.8906-1.8867 1.0391 0.003906 1.8789 0.84375 1.8867 1.8867zm0.058594-5.875v0.003906c0 0.78516-0.47656 1.4961-1.2031 1.8008-0.72656 0.30078-1.5664 0.13672-2.1211-0.42578-0.55859-0.55469-0.72656-1.3945-0.42578-2.1211 0.30078-0.73047 1.0117-1.2031 1.8008-1.2031 1.0742 0.003906 1.9453 0.875 1.9492 1.9492z" fill-rule="evenodd"/>
</svg>
