<?xml version="1.0" encoding="UTF-8"?>
<svg width="128pt" height="128pt" version="1.1" viewBox="0 0 128 128" xmlns="http://www.w3.org/2000/svg">
 <path d="m125.35 44.203c-1.0898-3.7734-4.6484-6.3008-8.5508-6.0508-1.9297 0.125-4.0586 0.72656-5.9688 1.1016-12.121 2.3984-25.473 4.6797-37.75 6.1055v-2.6602c1.6445-1.0312 3.2031-2.2383 4.7812-3.375l7.2734-5.25c4.6758-3.4297 3.8164-2.3789 6.6602-7.4219 1.0469-1.8555 5.8555-9.3555 6.1016-10.535 0.17187-0.81641-0.50391-1.7148-1.3242-1.8281-1.6289-0.22656-2.4688 2.2148-3.1016 3.3008-1.6133 2.7812-3.1953 5.5859-4.8594 8.3359-2.5859 4.2617-2.5742 3.6406-6.7539 6.6406-3.0898 2.2188-6.1406 4.625-9.3711 6.6406-0.60156-1.625-1.6992-3.375-3.1094-4.4141 3.3281-3.7852 2.1602-9.8164-2.2812-12.184-0.078125-8.8281 4.5156-9.0938 4.5039-10.859-0.003906-1.0703-0.98437-1.5195-1.9297-1.4648-3.9336 1.5586-5.5898 6.4336-5.6953 10.336-0.19922-1.6289-0.53906-4.8867-1.8555-5.9766-0.67969-0.56641-1.8359-0.57031-2.3555 0.21484-0.67578 1.0195 0.19141 1.9062 0.51562 2.8438 0.53516 1.5469 0.51953 3.2852 0.52344 4.9062-4.4688 2.6133-5.5117 8.0156-2.4648 12.184-1.3516 1.3203-2.3047 2.6016-2.8867 4.4141-1.4492-0.84375-2.7891-1.8398-4.1484-2.8203l-7.7656-5.5469c-2.7891-2.0195-2.7188-2.6602-4.4883-5.6797-0.97656-1.6602-5.6289-9.8359-6.5586-10.711-0.72656-0.67969-1.8867-0.33594-2.3164 0.50391-0.69141 1.3516 2.7109 6.0781 3.5938 7.5898l3.0469 5.1211c2.9102 4.9766 3.3047 4.6445 8.1914 8.1055l9.8164 6.9258c-0.03125 0.87891-0.011719 1.7617 0 2.6406-0.35156-0.070313-5.4062-0.91406-40.805-6.6914-5.1016-0.96094-10.516-0.03125-11.523 6.1953-0.49609 3.0547 1.7344 6.6797 3.4961 9.0898 8.9961 12.297 23.875 14.699 37.148 8.1953 4.3398-2.125 9.3789-5.125 13.398-7.7148 0.21094 0.82031 0.42188 1.4766 0.84375 2.2031-5.5703 3.7891-10.316 7.5234-16.273 11.086-3.1289 1.8711-3.5469 1.5195-4.7461 5.0938-0.57812 1.7266-1.0898 3.4688-1.5039 5.2383-2.5312 10.754-2.0703 11.395-12.195 17.012-1.2891 0.71484-3.1289 1.1602-3.4688 2.7891 0.69531 2.7852 3.0234 1.0469 4.6445 0.125 4.1445-2.3594 8.8438-4.7305 11.16-9.125 2.4766-4.7109 2.5234-11.637 5.1094-16.945 6.3867-3.5664 11.355-7.4961 17.281-11.273-3.4531 4.6836-7.0586 9.5781-10.359 14.375-2.8047 4.0703-1.8047 4.9844-1.2734 9.7266 1.2188 11.012 1.4258 18.074-3.6055 28.602-0.44531 0.93359-2.5898 4.8789 0.53125 4.3281 1.3711-0.23828 2.0664-2.5391 2.5391-3.625 4.5117-10.34 5.0312-16.82 3.8086-28.203-0.15625-1.4453-1.1367-6.2734-0.53516-7.3516 1.8789-3.375 5.3242-7.4805 7.5859-10.773-1.4961 8.5391-0.72656 15.758 3.4062 23.301 1.4961 1.8359 3.625 5.4297 6.2656 3.2539 7.6641-6.3047 6.7656-17.25 6.4297-26.004 1.8164 3.4883 5.3867 7.3203 7.5586 10.949-0.015626 1.2656-0.26563 2.5156-0.46094 3.7617-1.6484 10.469-1.6562 17.879 2.2188 28.109 0.42188 1.1055 1.9883 5.3359 2.7188 6.0508 1.0039 0.98438 2.8633 0.14844 2.6484-1.3086-0.14063-0.96094-1.4883-3.3789-1.9414-4.5117-4.7109-11.855-3.9766-16.941-2.3789-29.137 0.71875-5.4844-0.74609-5.7266-4.0781-10.297-2.5117-3.4414-5.8398-7.7852-7.9219-11.469 4.6055 3.9102 9.7188 7.4219 14.969 10.426 0.77344 0.44531 1.6719 0.85938 2.3711 1.4102 0.42969 1.2695 0.76172 2.5781 1.1211 3.875l2.1094 7.6094c0.87891 3.1055 1.5703 5.7891 3.8984 8.1484 1.4297 1.4492 10.559 8.1055 12.379 7.4766 1.4062-0.48438 1.3633-2.1445 0.26953-2.8945-3.8711-2.6562-8.7891-4.0195-11.641-8.3359-1.2656-1.9141-3.4766-10.805-4.25-13.664-1.4102-5.1953-1.0469-4.2305-5.7539-7.0234-5.4609-3.2383-10.453-6.9141-15.484-10.797 0.25-0.72656 0.55469-1.4648 0.73828-2.2031 1.6445 0.91016 3.1914 2.0039 4.8164 2.9531 9.2266 5.3984 19.301 10.613 30.262 7.4688 7.2695-2.0859 13.945-7.3633 17.617-14.004 1.1445-2.0859 2.0742-4.2344 1.3867-6.6289zm-70.531 1.1445v0.015625c-0.54687-0.09375-0.10937-0.03125 0-0.015625zm-8.9141 11.809c-4.3633 2.0586-7.3242 3.9961-12.398 4.9609-10.941 2.0898-21.418-3.2852-26.801-12.836-2.0234-3.5938-1.3594-7.1797 3.2812-7.9648 1.6719-0.18359 7.2539 1.1016 9.3164 1.4961 4.3359 0.76172 21.418 4.125 35.906 5.7617l0.36328 2.7383c-3.0469 1.9805-6.8555 3.8711-9.6641 5.8438zm18.07-33.273c0.51172 1.1094 1.4258 1.2852 2.3359 1.9766 2.4844 1.8867 2.3203 4.8945 0.54688 7.2031-2.6094-0.56641-3.1641-0.69531-5.8555 0-4.2109-5.8008 2.3047-7.4531 2.9766-9.1797zm0.42578 67.684-0.17578 0.09375c-1.0781-0.078125-3.3711-4.3633-3.7539-5.3945 1.0234-0.77344 1.9844-1.1914 3.2617-1.3516 1.4961 0.003907 2.7383 0.58984 3.9883 1.3516-1.0195 2.3867-2.2656 3.3516-3.3203 5.3008zm4.2539-8.3047c-1.1562-0.66016-2.2695-1.1211-3.5781-1.3633-2.0469-0.21484-3.9141 0.19531-5.6094 1.3633-0.57031-1.8555-0.76562-3.7695-0.94141-5.6953 1.3789-0.63672 2.8281-1.0195 4.3281-1.2148 2.2344-0.16016 4.4102 0.17188 6.3984 1.2148 0.011719 1.9531-0.26172 3.7734-0.60156 5.6953zm-4.2539-9.9141c-2.1055-0.015625-3.9453 0.21875-5.875 1.1055-0.09375-1.4844 0.066406-2.9453 0.26562-4.4141 1.4883-0.74609 3.0508-0.92187 4.6914-0.94922 1.8633-0.14062 3.7656 0.28516 5.5703 0.71875 0.15625 1.5469 0.23437 3.1016 0.32422 4.6445-1.5664-0.80859-3.2266-1.0742-4.9766-1.1055zm-3.6016-11.516c2.25 2.2617 4.375 1.3398 6.9141 0l0.10938 0.050781c0.41406 0.98828 0.67969 3.5039 0.82422 4.6758-3.1016-0.71484-6.0859-0.65625-9.1953 0-0.089844-0.89453 0.95312-3.7812 1.3438-4.7266zm3.8281-1.8281c-5.1602 1.4453-7.1758-14.961-6.7539-18 0.42188-3.0391 2.1562-5.4844 5.2344-6.2344 3.8008-0.29688 6.5742 2.8086 6.875 6.4883 0.26562 3.2617-1.5781 16.125-5.3555 17.746zm57.066-11.555c-3.1133 6.2148-8.9102 10.961-15.469 13.109-8.7539 2.875-15.535-0.050782-23.227-3.9492-3.75-1.8438-7.3633-4.6836-10.84-6.2969l0.48047-2.7383c2.2734-0.39062 4.6016-0.60156 6.8867-0.89844 9.4492-1.2344 18.863-2.8438 28.234-4.6055 2.9961-0.55859 6-1.3164 9.0117-1.75 4.0039-0.46484 6.8945 3.1953 4.9258 7.1289z"/>
</svg>
