<?xml version="1.0" encoding="UTF-8"?>
<svg width="128pt" height="128pt" version="1.1" viewBox="0 0 128 128" xmlns="http://www.w3.org/2000/svg">
 <path d="m117.3 96v10.238c0 0.35938-0.28125 0.64062-0.64062 0.64062h-9.6016v9.6016c0 0.35938-0.28125 0.64062-0.64062 0.64062h-10.238c-0.35938 0-0.64063-0.28125-0.64063-0.64062v-9.6016h-9.6016c-0.35938 0-0.64062-0.28125-0.64062-0.64062v-10.238c0-0.35938 0.28125-0.64062 0.64062-0.64062h9.6016v-9.6016c0-0.35937 0.28125-0.64062 0.64063-0.64062h10.238c0.35938 0 0.64062 0.28125 0.64062 0.64062v9.6016h9.6016c0.35938 0 0.64062 0.28125 0.64062 0.64062zm-6.9883-85.121h-92.25c-3.8555 0-6.9883 3.1367-6.9883 6.9883v71.77c0 3.8555 3.1367 6.9883 6.9883 6.9883h33.969v16.641h-10.879c-1.0586 0-1.9219 0.85938-1.9219 1.9219 0 1.0586 0.85938 1.9219 1.9219 1.9219h43.52c1.0586 0 1.9219-0.85938 1.9219-1.9219 0-1.0586-0.85938-1.9219-1.9219-1.9219h-8.3203v-18.551c0-1.0586-0.85937-1.9219-1.9219-1.9219h-56.371c-1.7383 0-3.1484-1.4219-3.1484-3.1484v-10.93h72.32c1.0586 0 1.9219-0.85938 1.9219-1.9219 0-1.0586-0.85938-1.9219-1.9219-1.9219h-3.1992v-18.559c0-1.0586-0.85938-1.9219-1.9219-1.9219-1.0586 0-1.9219 0.85938-1.9219 1.9219v18.559h-14.078v-13.441c0-1.0586-0.85938-1.9219-1.9219-1.9219-1.0586 0-1.9219 0.85938-1.9219 1.9219v13.441h-14.078v-26.238c0-1.0586-0.85938-1.9219-1.9219-1.9219-1.0586 0-1.9219 0.85937-1.9219 1.9219v26.238h-14.078v-8.3203c0-1.0586-0.85938-1.9219-1.9219-1.9219-1.0586 0-1.9219 0.85938-1.9219 1.9219v8.3203h-11.52v-57.012c0-1.7383 1.4219-3.1484 3.1484-3.1484h92.25c1.7383 0 3.1484 1.4219 3.1484 3.1484v66.609c0 1.0586 0.85938 1.9219 1.9219 1.9219 1.0586 0 1.9219-0.85938 1.9219-1.9219v-66.609c0-3.8555-3.1367-6.9883-6.9883-6.9883zm-62.875 20.875c-0.039062-0.023437-0.066406-0.039062-0.10156-0.066406-0.066407-0.039062-0.11328-0.074219-0.17969-0.11328-0.050781-0.023438-0.10156-0.050781-0.15625-0.066407-0.066406-0.023437-0.12891-0.050781-0.19141-0.074218-0.050782-0.015625-0.10156-0.023438-0.16406-0.039063-0.066406-0.015625-0.12891-0.023437-0.20312-0.039062h-0.36719c-0.050781 0-0.11328 0.015625-0.16406 0.023437-0.066406 0.015625-0.12891 0.023438-0.19141 0.039063-0.050781 0.015625-0.10156 0.039062-0.16406 0.066406-0.066407 0.023437-0.11328 0.050781-0.17969 0.074219-0.050781 0.023437-0.10156 0.066406-0.15625 0.089844-0.050781 0.039062-0.10156 0.066406-0.15625 0.10156-0.050781 0.039062-0.10156 0.089844-0.15625 0.14062-0.023438 0.023437-0.066406 0.050781-0.089844 0.089844l-20.48 23.039c-0.70313 0.79688-0.625 2.0117 0.15625 2.7148 0.37109 0.32031 0.82031 0.48438 1.2812 0.48438 0.52344 0 1.0586-0.21875 1.4336-0.64062l19.289-21.695 21.621 16.82h0.015624c0.15625 0.11328 0.32031 0.20312 0.5 0.26953 0.039063 0.015625 0.074219 0.023438 0.12891 0.039063 0.17969 0.050781 0.35938 0.089843 0.53906 0.089843 0.19141 0 0.38672-0.039062 0.56641-0.10156 0.050781-0.015625 0.089843-0.023438 0.12891-0.050781 0.17969-0.074219 0.35938-0.16406 0.51172-0.29688 0 0 0.015626 0 0.015626-0.015625l30.121-25.484-0.019531 8.6797c0 1.0586 0.85938 1.9219 1.9219 1.9219 1.0586 0 1.9219-0.85938 1.9219-1.9219v-12.801c0-0.039062-0.015625-0.066406-0.015625-0.10156 0-0.066407-0.015625-0.14063-0.023437-0.20313-0.015626-0.066406-0.023438-0.11328-0.039063-0.17969s-0.039063-0.12891-0.050781-0.17969c-0.023438-0.066407-0.050782-0.11328-0.074219-0.17969-0.023437-0.050781-0.050781-0.10156-0.089844-0.15625-0.039062-0.066406-0.074219-0.11328-0.11328-0.16406-0.023438-0.023438-0.039062-0.050782-0.050781-0.074219-0.015625-0.023438-0.039063-0.039063-0.050781-0.050781-0.050782-0.050782-0.10156-0.10156-0.15625-0.14063-0.039063-0.039062-0.089844-0.074218-0.12891-0.11328-0.050781-0.039062-0.10156-0.074219-0.16406-0.10156-0.050781-0.023438-0.10156-0.066407-0.15625-0.089844-0.050781-0.023437-0.11328-0.050781-0.16406-0.066406-0.066406-0.023438-0.11328-0.039063-0.17969-0.050781-0.050781-0.015626-0.11328-0.023438-0.16406-0.023438-0.066406-0.015625-0.14062-0.015625-0.20312-0.023438-0.023437 0-0.050781-0.015624-0.074219-0.015624h-12.801c-1.0586 0-1.9219 0.85937-1.9219 1.9219 0 1.0586 0.85938 1.9219 1.9219 1.9219h7.5508l-28.055 23.766zm50.664 16.883v25.602c0 1.0586 0.85938 1.9219 1.9219 1.9219 1.0586 0 1.9219-0.85938 1.9219-1.9219v-25.602c0-1.0586-0.85937-1.9219-1.9219-1.9219-1.0664 0-1.9219 0.85938-1.9219 1.9219z"/>
</svg>
