<?xml version="1.0" encoding="UTF-8"?>
<svg width="128pt" height="128pt" version="1.1" viewBox="0 0 128 128" xmlns="http://www.w3.org/2000/svg">
 <path d="m30.016 46.281c1.4062 0.20312 2.8242 0.015625 4.2461-0.53125-3.6797 8.8281 0.23047 19.57 7.4688 24.219 6.3047 4.6406 15.559 4.2109 21.344 2.1758 12.121-4.0039 16.898-15.789 18.031-19.121 23.078-0.94531 33.512-26.93 15.066-40.656-7.4062-5.0547-21.879-5.7109-28.465 7.4219-2.4492 0.30859-4.6289 1.4297-6.2305 3.0391-4.3398-6.8516-12.055-2.1133-11.766 4.9102-6.7812-5.9766-16.355-1.8203-19.102 4.5234-4.4102-1.3398-8.1016 1.9141-8.1914 5.7188-0.15625 3.8047 3.3945 7.6797 7.5938 8.2969zm-3.75-11.488c1.9609-1.3711 4.4453-0.25391 4.4688-0.23828 0.26562 0.125 0.57422 0.12891 0.84375 0.023437 0.26953-0.10938 0.48828-0.32812 0.59375-0.60156 0.089844-0.22656 2.1992-5.5547 7.6094-6.7383 11.414-2.1133 14.301 10.75 9.3086 19.398-0.27344 0.51562-0.085938 1.1602 0.43359 1.4336 2.3555 1.2656 4.1094-8.2461 4.0195-9.5312 4.1211 5.5664 10.648 8.6719 13.773 9.9062 0.53125 0.21094 1.1602-0.046874 1.375-0.59375 0.21484-0.54687-0.050781-1.1602-0.59375-1.375-3.7383-1.4766-12.719-5.7891-15.352-13.961-0.54688-1.6914-1.8164-5.6562 0.070312-8.6367 1.7266-3.3203 5.8008-2.8438 7.1953 0.84375-2.625 4.3164-0.94922 9.9297 3.4688 12.68 0.48828 0.31641 1.1484 0.17188 1.4648-0.32422 0.31641-0.49609 0.17188-1.1484-0.32422-1.4648-2.4961-1.5898-3.9258-4.2188-3.7188-6.8633 0.27344-3.6484 3.5352-6.6133 7.5781-6.8984 0.38672-0.023437 0.72656-0.26172 0.89062-0.61328 1.0469-2.2617 3.5352-6.3945 8.5-8.6836 8.5586-3.9414 16.789 1.3711 17.137 1.6016 6.0664 3.9961 9.4453 11.93 8.2109 19.301-1.6445 9.8281-11.488 17.352-22.902 17.484-0.46484 0.003906-0.875 0.31641-1.0039 0.76172-0.42969 1.4609-4.5547 14.371-16.898 18.449-3.4062 1.125-12.121 3.1914-19.469-1.9062-8.4961-5.6484-9.8594-17.059-5.4336-24.43 2.2539-2 3.1055-4.5547 3.3789-5.6953 0.13672-0.57031-0.21484-1.1406-0.78516-1.2812-0.55859-0.13672-1.1406 0.21484-1.2812 0.78516-0.26562 1.1055-1.1758 3.8438-3.8867 5.4766-0.58594 0.35156-2.3594 1.4258-4.6094 1.0938-4.3594-0.72656-8.1406-5.8516-4.0703-9.3984zm53.09-2.7734c0.57422 0.69922 1.8086 1.9062 3.6289 2.1602 2.5938 0.55469 4.9766-1.4961 2.1133-4.0547-0.44141-0.38672-0.48438-1.0547-0.10156-1.4961 0.38672-0.44141 1.0547-0.48438 1.4961-0.10156 1.7188 1.5039 2.4336 3.5352 1.8203 5.1719-2.1055 4.6719-8.8633 2.3438-10.602-0.32812-0.375-0.44922-0.30469-1.1211 0.14453-1.4961 0.45312-0.37109 1.125-0.30859 1.4961 0.14453zm-5.7109-11.387c0.28516-1.3516 2.3242-0.95312 2.0859 0.39453-0.050781 0.79688 0.71094 0.73047 2.0898 0.47656 0.57031-0.12891 1.1406 0.21875 1.2734 0.78906 0.30078 1.3984-1.6133 1.4766-2.4883 1.4961-2.2188 0.125-3.3008-1.8281-2.9609-3.1562zm51.301 24.285c-1.9805-0.74609-4.2383 0.35547-5.0352 2.4531-2.0938 9-5.3945 18.254-11.926 24.922-0.125-3.5195-4.3555-5.6445-7.4414-4.1445l-11.246 4.9961c-5.0547 2.2461-9.2031 6.2344-11.863 11.309-6.7734-7.7148-20.094-7.7109-26.871 0-2.6602-5.0703-6.8086-9.0586-11.863-11.305l-11.246-4.9961c-3.0664-1.4883-7.3086 0.60938-7.4414 4.1445-6.3945-6.5898-9.7695-15.551-11.789-24.48-0.56641-2.3164-3.0586-3.7305-5.1719-2.8984-1.4883 0.56641-2.4609 2.0508-2.4141 3.6797 0.10156 6.4219 1.5156 19.012 9.8242 31.176 3.5039 5.1133 7.7734 9.5312 12.695 13.121 4.1836 3.0508 7.2969 7.6484 8.6211 12.73-1.9492 1.1562-2.8203 3.6992-1.9297 6.0508l1.4883 3.9531c0.98437 2.5781 3.7109 3.9844 6.1758 3.0859l16.496-6.2188c5.6719 3.9141 14.324 3.9141 19.996 0l16.508 6.2188c2.4609 0.89453 5.1797-0.50391 6.1641-3.0898l1.4844-3.9531c0.88672-2.3398 0.023438-4.875-1.9336-6.0508 1.3242-5.0859 4.4297-9.6797 8.6211-12.73 4.9219-3.5898 9.1914-8.0039 12.695-13.121 8.3086-12.164 9.7188-24.754 9.8242-31.16 0.03125-1.6445-0.94141-3.125-2.4258-3.6914zm-100.54 46.262c-4.7266-3.4492-8.8242-7.6914-12.195-12.605-7.9961-11.699-9.3555-23.824-9.4492-30.02-0.019531-0.74609 0.39844-1.4102 1.0469-1.6562 1-0.40625 2.1914 0.43359 2.4062 1.5781 1.5586 7.6758 4.6406 15.055 9 21.469 1.7734 2.625 4.0898 4.8438 6.7031 6.4336-0.39062-0.14844 8.7852 5.0508 8.8516 5.0938 1.1914 0.68359 2.2656-1.1367 1.0586-1.8398l-8.2539-4.7188c-2.1992-1.125-1.7305-4.2266 0.48438-4.9336 0.81641-0.30469 1.7188-0.27344 2.5469 0.089843l11.246 4.9961c4.8789 2.1641 8.8438 6.1211 11.25 11.148-2.8242 3.7969-4.1719 9.125-3.2305 13.984l-12.113 4.5664c-1.4961-5.4258-4.8398-10.305-9.3438-13.59zm12.355 25.547c-1.3281 0.48828-2.875-0.33594-3.4453-1.8438l-1.4844-3.9531c-0.64063-1.7188 0.18359-3.3984 1.7266-3.8008l12.781-4.8164c1.0234 3.3516 2.9766 6.3906 5.6367 8.6797zm12.219-13.328c-4.6406-10.406 3.5703-22.91 15.016-22.672 11.465-0.23047 19.668 12.289 14.996 22.711-5.5586 13.137-24.484 13.094-30.008-0.039062zm47.184 7.5312-1.4844 3.9531c-0.57031 1.5117-2.1211 2.3438-3.4414 1.8516l-15.219-5.7344c2.6641-2.2852 4.6133-5.3242 5.6289-8.6797l12.785 4.8086c1.5508 0.42188 2.3711 2.1055 1.7305 3.8008zm7.4141-19.738c-4.5 3.2852-7.8438 8.1602-9.3359 13.605l-12.113-4.5586c0.94531-4.8633-0.40625-10.195-3.2266-13.992 2.4102-5.0312 6.375-8.9844 11.254-11.156l11.238-4.9961c2.9492-1.4297 6.2617 2.2891 3.3984 4.6055-0.12109 0.078125-0.23828 0.16016-0.37109 0.23438l-8.2539 4.7188c-1.1992 0.69531-0.14062 2.5312 1.0586 1.8398l8.25-4.7148c0.16406-0.09375 0.32031-0.19531 0.47656-0.29688v-0.003907c2.6719-1.5898 5.0234-3.8555 6.8281-6.5156 4.3906-6.4219 7.4688-13.949 9.0352-21.594 0.46484-2.1055 3.4453-2.0469 3.4141 0.20312 0.25391 12.57-6.7305 32.32-21.66 42.613zm-30.449 1.3242h-4.6094v-4.6094c0-1.3398-1.0898-2.4297-2.4297-2.4297h-4.1953c-1.3398 0-2.4297 1.0898-2.4297 2.4297v4.6094h-4.6094c-1.3398 0-2.4297 1.0898-2.4297 2.4297v4.1914c0 1.3398 1.0898 2.4297 2.4297 2.4297h4.6094v4.6094c0 1.3398 1.0898 2.4297 2.4297 2.4297h4.1953c1.3398 0 2.4297-1.0898 2.4297-2.4297v-4.6094h4.6094c1.3398 0 2.4297-1.0898 2.4297-2.4297v-4.1914c-0.003906-1.3438-1.0938-2.4297-2.4297-2.4297zm0.30469 6.6211c0 0.17188-0.14062 0.30469-0.30469 0.30469h-5.6719c-0.58594 0-1.0586 0.47656-1.0586 1.0586v5.6719c0 0.17188-0.14062 0.30469-0.30469 0.30469h-4.1953c-0.17188 0-0.30469-0.14062-0.30469-0.30469v-5.6719c0-0.58594-0.47656-1.0586-1.0586-1.0586h-5.6719c-0.17188 0-0.30859-0.14062-0.30859-0.30469v-4.1914c0-0.17187 0.14062-0.30469 0.30859-0.30469h5.6719c0.58594 0 1.0586-0.47656 1.0586-1.0586v-5.6719c0-0.17188 0.14062-0.30469 0.30469-0.30469h4.1953c0.17188 0 0.30469 0.13672 0.30469 0.30469v5.6719c0 0.58594 0.47656 1.0586 1.0586 1.0586h5.6719c0.17188 0 0.30469 0.14062 0.30469 0.30469z"/>
</svg>
