<?xml version="1.0" encoding="UTF-8"?>
<svg width="128pt" height="128pt" version="1.1" viewBox="0 0 128 128" xmlns="http://www.w3.org/2000/svg">
 <path d="m22.055 29.32c2.2969 0 4.3711 0.93359 5.875 2.4336l0.15625 0.17578c1.4102 1.4883 2.2734 3.5 2.2734 5.6992 0 2.2852-0.93359 4.3594-2.4336 5.8633-1.5156 1.5156-3.5898 2.4453-5.875 2.4453-2.2969 0-4.3711-0.93359-5.875-2.4336-1.5-1.5-2.4336-3.5859-2.4336-5.875 0-2.2969 0.93359-4.375 2.4336-5.875s3.5781-2.4336 5.875-2.4336zm78.551 27.766 0.10156 0.09375 0.09375 0.10156 13.574 13.578c2.1758 2.2539 3.2656 5.1797 3.2656 8.1016 0 2.375-0.71875 4.7617-2.1641 6.7812 2.3203 0.45312 4.3984 1.6016 6.0117 3.2148 2.1133 2.125 3.4336 5.0508 3.4336 8.2617 0 3.2031-1.3164 6.1367-3.4336 8.25-2.125 2.125-5.0547 3.4414-8.2617 3.4414h-38.23c-3.1367 0-5.9961-1.2539-8.1016-3.2852l-0.16406-0.14844c-1.2812-1.2812-2.2617-2.8555-2.8438-4.6055h-51.371c-2.5938 0-4.9531-1.0586-6.6641-2.7695-1.7031-1.7031-2.7695-4.0664-2.7695-6.6602v-62.926c0-2.5859 1.0586-4.9414 2.7695-6.6562l0.015626-0.015625c1.7148-1.7031 4.0664-2.7656 6.6445-2.7656h54.16c2.5859 0 4.9453 1.0664 6.6602 2.7734 1.7148 1.6992 2.7734 4.0664 2.7734 6.6602v12.066c0.92188-0.22656 1.8633-0.33984 2.8086-0.33984 2.9961 0 5.9883 1.1367 8.2695 3.4141l13.414 13.426zm-1.7031 5.5234-9.2969 9.2969 11.711 11.711c1.2305 1.2344 2.8555 1.875 4.4883 1.9102h0.32031c1.6289-0.039063 3.2539-0.67969 4.4883-1.9102 1.2812-1.2695 1.9141-2.9609 1.9141-4.6484 0-1.6406-0.60156-3.2812-1.7969-4.5352l-0.12109-0.10938-11.711-11.711zm-14.645 11.18-0.078124-0.074218-8.0586-8.0586v19.875h19.887l-11.738-11.734zm1.7305-5.5039 9.2969-9.2969-11.711-11.711c-1.2734-1.2734-2.9609-1.9102-4.6445-1.9102-1.3438 0-2.6914 0.40625-3.8203 1.2148h-0.003906l-0.015625 0.011719-0.10156 0.070312c-0.25 0.19141-0.48438 0.39063-0.71094 0.61328-1.2734 1.2734-1.9141 2.9609-1.9141 4.6484 0 1.6836 0.64062 3.3711 1.9141 4.6484zm20.121 22.359h-9.4297v13.148h16.562c1.8086 0 3.4531-0.73828 4.6445-1.9297 1.1836-1.1914 1.9297-2.8398 1.9297-4.6445 0-1.8086-0.73828-3.4531-1.9297-4.6445-1.1953-1.1836-2.8398-1.9297-4.6445-1.9297zm-35.109-30.109-0.33984-0.33984c-2.2734-2.2734-3.4141-5.2734-3.4141-8.2695 0-2.9961 1.1406-5.9961 3.4141-8.2695l0.33984-0.32422v-14.816c0-1.1836-0.48828-2.2656-1.2656-3.0469-0.77344-0.78516-1.8555-1.2695-3.0469-1.2695h-24.52v71.551h21.23c0.32812-2.6406 1.5508-5.0039 3.3398-6.7969 1.1953-1.1953 2.6445-2.1367 4.2617-2.7266v-25.699zm20.555 43.262v-13.148h-16.562c-0.32422 0-0.64063 0.023437-0.94922 0.070312l-0.039063 0.011719-0.054687 0.011719-0.023438 0.003906-0.035156 0.003906c-1.3633 0.23438-2.5898 0.89453-3.5312 1.8398-1.1914 1.1914-1.9297 2.8398-1.9297 4.6445s0.73828 3.4492 1.9297 4.6445l0.10938 0.12109c1.1797 1.1211 2.7812 1.8086 4.5312 1.8086h16.562zm-54.512-8.0352v-71.551h-24.52c-1.1914 0-2.2695 0.48437-3.0469 1.2617-0.78516 0.78516-1.2695 1.8633-1.2695 3.0547v62.926c0 1.1836 0.48828 2.2617 1.2695 3.0469 0.78516 0.78516 1.8594 1.2656 3.0469 1.2656zm20.102-21.727c2.2852 0 4.3594 0.93359 5.8633 2.4336 1.5156 1.5 2.4453 3.5859 2.4453 5.875 0 2.2969-0.93359 4.3711-2.4336 5.875-1.5 1.5-3.5859 2.4336-5.875 2.4336-2.2969 0-4.3711-0.93359-5.875-2.4336-1.5-1.5-2.4336-3.5859-2.4336-5.875 0-2.2969 0.93359-4.3711 2.4336-5.875 1.5-1.5 3.5859-2.4336 5.875-2.4336zm2.2539 6.0508c-0.57031-0.57031-1.3711-0.93359-2.2539-0.93359-0.87891 0-1.6797 0.35547-2.2539 0.93359-0.57422 0.57422-0.93359 1.375-0.93359 2.2539s0.35547 1.6797 0.93359 2.2539c0.57422 0.57422 1.375 0.93359 2.2539 0.93359 0.87891 0 1.6797-0.35547 2.2539-0.93359 0.57422-0.57422 0.93359-1.375 0.93359-2.2539s-0.35547-1.6797-0.93359-2.2617zm-2.2539-28.41c2.2969 0 4.3711 0.93359 5.875 2.4336 1.5 1.5 2.4336 3.5859 2.4336 5.875 0 2.2969-0.93359 4.3711-2.4336 5.875-1.5 1.5-3.5859 2.4336-5.875 2.4336-2.2969 0-4.3711-0.93359-5.875-2.4336-1.5-1.5-2.4336-3.5859-2.4336-5.875 0-2.2969 0.93359-4.3711 2.4336-5.875 1.5-1.5 3.5781-2.4336 5.875-2.4336zm2.2539 6.0508c-0.57422-0.57422-1.375-0.93359-2.2539-0.93359-0.87891 0-1.6797 0.35547-2.2539 0.93359-0.57422 0.57422-0.93359 1.375-0.93359 2.2539 0 0.87891 0.35547 1.6797 0.93359 2.2539 0.57422 0.57422 1.375 0.93359 2.2539 0.93359 0.87891 0 1.6797-0.35547 2.2539-0.93359 0.57422-0.57422 0.93359-1.375 0.93359-2.2539 0-0.87891-0.35547-1.6797-0.93359-2.2539zm-2.2539-28.41c2.2969 0 4.3711 0.93359 5.875 2.4336l0.15625 0.17578c1.4102 1.4883 2.2734 3.5 2.2734 5.6992 0 2.2852-0.93359 4.3594-2.4336 5.8633-1.5156 1.5156-3.5898 2.4453-5.875 2.4453-2.2969 0-4.3711-0.93359-5.875-2.4336-1.5-1.5-2.4336-3.5859-2.4336-5.875 0-2.2969 0.93359-4.375 2.4336-5.875s3.5781-2.4336 5.875-2.4336zm2.2539 6.0508c-0.57422-0.57422-1.375-0.93359-2.2539-0.93359-0.87891 0-1.6797 0.35547-2.2539 0.93359-0.57422 0.57422-0.93359 1.375-0.93359 2.2539s0.35547 1.6797 0.93359 2.2539c0.57422 0.57422 1.375 0.93359 2.2539 0.93359 0.88672 0 1.6836-0.35547 2.2617-0.92969 0.57031-0.57422 0.92969-1.375 0.92969-2.2617 0-0.83594-0.31641-1.5938-0.83594-2.1602zm-37.336 38.66c2.2852 0 4.3594 0.93359 5.8633 2.4336 1.5156 1.5 2.4453 3.5859 2.4453 5.875 0 2.2969-0.93359 4.3711-2.4336 5.875-1.5 1.5-3.5859 2.4336-5.875 2.4336-2.2969 0-4.3711-0.93359-5.875-2.4336-1.5-1.5-2.4336-3.5859-2.4336-5.875 0-2.2969 0.93359-4.3711 2.4336-5.875 1.5-1.5 3.5859-2.4336 5.875-2.4336zm2.2539 6.0508c-0.57031-0.57031-1.3711-0.93359-2.2539-0.93359-0.87891 0-1.6797 0.35547-2.2539 0.93359-0.57422 0.57422-0.93359 1.375-0.93359 2.2539 0 0.87891 0.35547 1.6797 0.93359 2.2539 0.57422 0.57422 1.375 0.93359 2.2539 0.93359s1.6797-0.35547 2.2539-0.93359c0.57422-0.57422 0.93359-1.375 0.93359-2.2539 0-0.87891-0.35547-1.6797-0.93359-2.2617zm-2.2539-28.41c2.2969 0 4.3711 0.93359 5.875 2.4336 1.5 1.5 2.4336 3.5859 2.4336 5.875 0 2.2969-0.93359 4.3711-2.4336 5.875-1.5 1.5-3.5859 2.4336-5.875 2.4336-2.2969 0-4.3711-0.93359-5.875-2.4336-1.5-1.5-2.4336-3.5859-2.4336-5.875 0-2.2969 0.93359-4.3711 2.4336-5.875 1.5-1.5 3.5781-2.4336 5.875-2.4336zm2.2539 6.0508c-0.57422-0.57422-1.375-0.93359-2.2539-0.93359s-1.6797 0.35547-2.2539 0.93359c-0.57422 0.57422-0.93359 1.375-0.93359 2.2539s0.35547 1.6797 0.93359 2.2539c0.57422 0.57422 1.375 0.93359 2.2539 0.93359s1.6797-0.35547 2.2539-0.93359c0.57422-0.57422 0.93359-1.375 0.93359-2.2539s-0.35547-1.6797-0.93359-2.2539zm0-22.355c-0.57422-0.57422-1.375-0.93359-2.2539-0.93359s-1.6797 0.35547-2.2539 0.93359c-0.57422 0.57422-0.93359 1.375-0.93359 2.2539 0 0.87891 0.35547 1.6797 0.93359 2.2539 0.57422 0.57422 1.375 0.93359 2.2539 0.93359 0.88672 0 1.6836-0.35547 2.2617-0.92969 0.57031-0.57422 0.92969-1.375 0.92969-2.2617 0-0.83594-0.31641-1.5938-0.83594-2.1602z"/>
</svg>
