<?xml version="1.0" encoding="UTF-8"?>
<svg width="128pt" height="128pt" version="1.1" viewBox="0 0 128 128" xmlns="http://www.w3.org/2000/svg">
 <path d="m97.875 69.559-20.172-25.859c-1.0352-1.2969-2.0703-2.0703-3.2305-2.4531-0.64453-0.39062-2.1992-0.39062-2.8438-0.39062h-26.637c-4.2656 0-7.6289 3.2305-7.8867 7.5l-1.5508 32.066c-0.26172 3.75 2.3242 7.2383 5.9453 8.1445l1.0352 29.863c0.26172 5.0391 4.5234 9.0508 9.5703 9.0508h12.801c5.0391 0 9.1797-3.8789 9.5703-9.0508l0.76953-21.461v-1.0352l1.8086-30.383 8.5352 10.859c-1.1641 0.64453-2.0703 1.6797-2.8438 2.8438-0.26172 0.39062-0.39062 0.90625-0.26172 1.4219s0.39062 0.90625 0.77344 1.1641c0.77344 0.51562 1.9414 0.26172 2.4531-0.51562 0.64453-1.0352 1.4219-1.6797 2.1992-1.9414 1.5508 1.4219 2.9766 1.8086 4.0117 1.9414h0.26172v43.57c0 1.0352 0.77344 1.8086 1.8086 1.8086 1.0352 0 1.8086-0.77344 1.8086-1.8086l-0.003906-44.477c0.51562-0.26172 0.77344-0.39062 1.1641-0.77344 2.7148-1.9414 3.8789-6.0742 0.90625-10.086zm-2.9766 7.5c-1.4219 1.1641-3.75 1.1641-5.6914-1.2969l-10.73-13.703c-0.51562-0.64453-1.2969-1.0352-2.0703-1.0352-0.26172 0-0.51562 0-0.77344 0.12891-1.0352 0.26172-1.8086 1.2969-1.8086 2.3242l-1.9414 32.195-0.77344 22.5c-0.39062 3.4883-3.1055 5.9453-6.4648 5.9453h-12.539c-3.3594 0-6.0742-2.4531-6.3359-5.9453l-1.0352-29.609c2.7148-0.77344 4.2656-3.2305 4.7852-7.2383l1.1641-23.531c0-0.90625-0.77344-1.6797-1.5508-1.6797-0.90625 0-1.6797 0.64453-1.6797 1.5508l-1.1641 23.531c-0.51562 3.2305-1.5508 4.6562-3.75 4.5234l-0.12891-0.12891h-0.12891c-2.3242-0.51562-3.6211-2.5859-3.4883-4.7852l1.5508-32.066c0.12891-2.5859 2.1992-4.5234 4.6562-4.5234h26.766c0.51562 0 1.0352 0 1.2969 0.12891h0.39062c0.12891 0 0.26172 0.12891 0.26172 0.12891 0.39062 0.12891 0.64453 0.51562 1.2969 1.1641l20.031 25.469c0 0.12891 0.12891 0.12891 0.12891 0.26172 0.90625 1.1641 1.2969 2.3242 1.1641 3.3594-0.12891 0.90625-0.64844 1.8086-1.4258 2.3281z"/>
 <path d="m40.723 17.586c-1.4219 8.0156 2.7148 16.418 10.73 19.781 2.1992 0.90625 4.3945 1.2969 6.8555 1.2969 7.2383 0 13.703-4.3945 16.551-11.121 1.8086-4.5234 1.8086-9.4414 0-13.703-1.8086-4.3945-5.3008-7.7617-9.6953-9.6953-2.1992-0.90625-4.3945-1.2969-6.8555-1.2969-2.1992 0-4.3945 0.39062-6.4648 1.1641 0 0-0.12891-0.12891-0.12891-0.26172-3.8789-2.9766-9.3086-2.3242-12.285 1.5508-1.4219 1.8086-2.0703 4.1367-1.8086 6.4648 0.26562 2.3281 1.2969 4.3945 3.1055 5.8203zm31.035-2.1992c1.5508 3.6211 1.5508 7.6289 0 11.121-2.1992 5.5586-7.6289 9.0508-13.574 9.0508-1.9414 0-4.0117-0.39062-5.5586-1.1641-3.6211-1.5508-6.4648-4.2656-7.8867-7.8867-0.12891-0.12891-0.12891-0.39062-0.12891-0.51562 9.0508-3.1055 16.418-8.5352 22.496-16.68 2.0664 1.5508 3.75 3.6211 4.6562 6.0742zm-7.8906-8.0156c0.12891 0.12891 0.26172 0.12891 0.51562 0.26172-5.6914 7.3711-12.41 12.285-20.559 15.125-0.26172-2.5859 0-5.0391 0.90625-7.5 2.1992-5.5586 7.6289-9.0508 13.574-9.0508 1.9453 0 4.0156 0.39062 5.5664 1.1641zm-21.98 0c1.5508-2.0703 4.3945-2.7148 6.7266-1.5508-2.9766 1.9414-5.4297 4.7852-6.8555 8.1445-0.51562-0.77344-0.90625-1.5508-1.0352-2.4531-0.125-1.5547 0.26172-2.9766 1.1641-4.1406z"/>
</svg>
