<?xml version="1.0" encoding="UTF-8"?>
<svg width="128pt" height="128pt" version="1.1" viewBox="0 0 128 128" xmlns="http://www.w3.org/2000/svg">
 <path d="m75.754 42.746h-60.395c-1.0273 0-1.8438 0.83203-1.8438 1.8438 0 1.0078 0.83203 1.8438 1.8438 1.8438h60.395c1.0273 0 1.8438-0.83203 1.8438-1.8438-0.003906-1.0117-0.83594-1.8438-1.8438-1.8438z"/>
 <path d="m77.594 57.891c0-1.0078-0.83203-1.8438-1.8438-1.8438h-60.391c-1.0273 0-1.8438 0.83203-1.8438 1.8438 0 1.0078 0.83203 1.8438 1.8438 1.8438h60.395c1.0078 0 1.8398-0.83594 1.8398-1.8438z"/>
 <path d="m70.207 71.176c0-1.0078-0.83203-1.8438-1.8438-1.8438h-53.004c-1.0273 0-1.8438 0.83203-1.8438 1.8438 0 1.0078 0.83203 1.8438 1.8438 1.8438h53.004c1.0273 0 1.8438-0.83594 1.8438-1.8438z"/>
 <path d="m62.836 84.461c0-1.0078-0.83203-1.8438-1.8438-1.8438h-45.633c-1.0273 0-1.8438 0.83203-1.8438 1.8438 0 1.0078 0.83594 1.8438 1.8438 1.8438h45.633c1.0312 0 1.8438-0.83594 1.8438-1.8438z"/>
 <path d="m55.465 97.746c0-1.0078-0.83203-1.8438-1.8438-1.8438h-38.262c-1.0273 0-1.8438 0.83203-1.8438 1.8438 0 1.0078 0.83203 1.8438 1.8438 1.8438h38.266c1.0273-0.003906 1.8398-0.81641 1.8398-1.8438z"/>
 <path d="m15.359 109.19c-1.0273 0-1.8438 0.83203-1.8438 1.8438 0 1.0078 0.83594 1.8398 1.8438 1.8398h30.195c1.0273 0 1.8438-0.83203 1.8438-1.8438 0-1.0078-0.83203-1.8438-1.8438-1.8438z"/>
 <path d="m93.285 101.06c-1.0273 0-1.8438 0.83203-1.8438 1.8438v5.332c0 7.1172-5.7812 12.898-12.898 12.898h-58.762c-7.1172 0-12.898-5.7812-12.898-12.898l0.003907-73.754h84.559v9.1914c0 1.0078 0.83203 1.8438 1.8438 1.8438 1.0078 0 1.8438-0.83203 1.8438-1.8438v-11.035-0.039063-3.625c0-9.1523-7.4492-16.582-16.582-16.582h-0.39453c-0.50391-5.3516-3.1406-9.2109-6.5547-9.2109-3.4141 0-6.0703 3.8398-6.5547 9.2109h-9.3281c-0.50391-5.3516-3.1406-9.2109-6.5547-9.2109-3.4141 0-6.0703 3.8398-6.5547 9.2109h-9.3281c-0.50391-5.3516-3.1406-9.2109-6.5547-9.2109-3.4141 0-6.0703 3.8398-6.5547 9.2109h-0.36719c-9.1523 0-16.582 7.4492-16.582 16.582v3.6836 0.039063 75.539c0 9.1523 7.4492 16.582 16.582 16.582h58.762c9.1523 0 16.582-7.4492 16.582-16.582v-5.332c-0.019532-1.0117-0.85547-1.8438-1.8633-1.8438zm-21.703-94.195c1.0078 0 2.4453 2.1523 2.8516 5.5273h-5.7031c0.41016-3.3945 1.8633-5.5273 2.8516-5.5273zm-22.438 0c1.0078 0 2.4453 2.1523 2.8516 5.5273h-5.7031c0.40625-3.3945 1.8438-5.5273 2.8516-5.5273zm-22.457 0c1.0078 0 2.4453 2.1523 2.8516 5.5273h-5.6836c0.38672-3.3945 1.8203-5.5273 2.832-5.5273zm-19.82 22.105c0-7.1172 5.7812-12.898 12.898-12.898h9.7734c-0.40625 3.375-1.8438 5.5273-2.8516 5.5273-1.0273 0-1.8438 0.83203-1.8438 1.8438 0 1.0078 0.83203 1.8438 1.8438 1.8438 3.4141 0 6.0703-3.8398 6.5547-9.2109h18.734c-0.40625 3.375-1.8438 5.5273-2.8516 5.5273-1.0273 0-1.8438 0.83203-1.8438 1.8438 0 1.0078 0.83203 1.8438 1.8438 1.8438 3.4141 0 6.0703-3.8398 6.5547-9.2109h18.734c-0.40625 3.375-1.8438 5.5273-2.8516 5.5273-1.0273 0-1.8438 0.83203-1.8438 1.8438 0 1.0078 0.83203 1.8438 1.8438 1.8438 3.4141 0 6.0703-3.8398 6.5547-9.2109h0.36719c7.1172 0 12.898 5.7812 12.898 12.898v1.8438l-84.516-0.011719z"/>
 <path d="m124.7 44.004c-0.34766-1.9375-1.4531-3.625-3.0625-4.7305l-6.5547-4.5195c-3.3555-2.3086-7.9531-1.4531-10.258 1.9023l-5.2383 7.6211v0.019531l-30.797 44.801c0 0.019532 0 0.019532-0.019531 0.039063-0.11719 0.19531-0.21484 0.38672-0.27344 0.62109v0.039063c-0.019531 0.13672-0.039062 0.27344-0.039062 0.40625l0.52344 16.02c0.019531 0.58203 0.30859 1.125 0.79688 1.4531 0.30859 0.21484 0.67969 0.32812 1.0469 0.32812 0.19531 0 0.40625-0.039062 0.60156-0.097656l15.148-5.2383c0.078125-0.019531 0.13672-0.078125 0.19531-0.097657 0.019531-0.019531 0.039062-0.019531 0.078124-0.039062 0.25391-0.13672 0.46484-0.30859 0.62109-0.54297l0.019532-0.019531 30.797-44.801 5.2383-7.6211c1.1172-1.6445 1.5234-3.6016 1.1758-5.543zm-23.137 3.8789 4.7891 3.2969-28.703 41.754-4.7891-3.2969zm-28.996 55.719-0.32812-9.8711 9.6562 6.6328zm12.918-5.2539-4.7891-3.2969 28.703-41.754 4.7891 3.2969zm35.008-50.91-4.1875 6.1094-12.648-8.6875 4.1875-6.1094c0.5625-0.81641 1.3945-1.3594 2.3672-1.5312 0.96875-0.17578 1.9375 0.019531 2.7539 0.58203l6.5547 4.5195c0.81641 0.5625 1.3594 1.3945 1.5312 2.3672 0.19531 0.94531-0.015626 1.9336-0.55859 2.75z"/>
</svg>
