<?xml version="1.0" encoding="UTF-8"?>
<svg width="128pt" height="128pt" version="1.1" viewBox="0 0 128 128" xmlns="http://www.w3.org/2000/svg">
 <path d="m119.8 12.641c-0.94141-0.57031-2.1641-0.27344-2.7383 0.66016l-17.602 29.098-1.6992-1.0391c-0.45312-0.27344-1.0039-0.35156-1.5195-0.21875-0.51563 0.125-0.96484 0.44531-1.2383 0.89844l-2.2188 3.6992c-0.69922-0.019531-1.3594 0.32812-1.7383 0.92188l-6.8398 11.34h-14l9.8203-18c6.1602 0.32031 11.953-2.9297 14.895-8.3555s2.5-12.059-1.1367-17.043c-0.40625-0.55859-1.0664-0.87109-1.75-0.82422s-1.3047 0.44141-1.6289 1.0469l-5.5195 10.16-4.8789 0.42188-2.2383-4.2383 5.6211-10.16c0.35547-0.62109 0.35547-1.3789 0-2-0.33984-0.58984-0.96094-0.96875-1.6406-1-6.1289-0.32812-11.91 2.8789-14.871 8.2617-2.9609 5.375-2.5859 11.977 0.96875 16.98l-11.5 21.121-8.2383-18.941-2.3789-5.5-0.39844-0.89844c-0.14062-0.24609-0.17578-0.53906-0.085937-0.80859 0.089844-0.26953 0.28906-0.48828 0.55078-0.60547 0.26172-0.11328 0.55469-0.11328 0.81641 0.003906 0.26172 0.11328 0.45312 0.33984 0.53906 0.60938 0.32031 0.73828 0.92578 1.3203 1.6758 1.6133 0.75 0.29688 1.5898 0.27344 2.3242-0.054688l6.4219-2.8008c0.48438-0.21094 0.86328-0.60938 1.0586-1.1016 0.19922-0.48438 0.19922-1.0352 0-1.5195l-5.6602-12.922c-0.21094-0.48437-0.60938-0.86328-1.1016-1.0586-0.49609-0.20312-1.0469-0.20312-1.5391 0l-6.3203 2.8008c-0.73438 0.32422-1.3164 0.92969-1.6055 1.6797-0.28516 0.75-0.26562 1.5859 0.066406 2.3203 0.10156 0.24609 0.10156 0.51562 0 0.76172-0.09375 0.23828-0.28516 0.43359-0.51953 0.53906-0.24609 0.14844-0.55078 0.18359-0.82031 0.089844-0.27344-0.089844-0.49609-0.30078-0.60156-0.57031-0.31641-0.73047-0.91406-1.3008-1.6602-1.5781-0.73438-0.30859-1.5664-0.30859-2.3008 0l-13.359 5.8008c-4.4688 1.9492-7.9844 5.5898-9.7734 10.125-1.7969 4.5352-1.7148 9.5938 0.21484 14.074l0.62109 1.4414c0.32031 0.73047 1.0391 1.2031 1.8398 1.1992h0.19922c0.875-0.089843 1.5898-0.73828 1.7617-1.6016 0.96484-4.6406 4.1289-8.5195 8.4805-10.398l4.9609-2.1602c0.51953-0.21484 1.1133 0.015625 1.3594 0.51953l2.3789 5.5195 7.4219 17.059h-24.66c-1.1055 0-2 0.89453-2 2v8c0 0.53125 0.21094 1.0391 0.58594 1.4141s0.88672 0.58594 1.4141 0.58594h2v6c-0.019531 0.10938-0.019531 0.23047 0 0.33984l2.3594 13.379-5.3984 3.3594c-0.88672 0.54687-1.2031 1.6758-0.73828 2.6016l4.3984 8.6797c-0.41016 0.63672-0.77344 1.3047-1.0781 2l-9.6992 0.80078c-1.0391 0.085937-1.8438 0.95312-1.8398 2v8c-0.003906 1.0469 0.80078 1.9141 1.8398 2l11.059 0.92188h26.359l10.898-0.92188c1.0391-0.085938 1.8438-0.95312 1.8398-2v-5.1602h48c0.98438 0.015626 1.8359-0.69141 2-1.6602l6-34c0.019531-0.10938 0.019531-0.23047 0-0.33984v-6h2c0.53125 0 1.0391-0.21094 1.4141-0.58594s0.58594-0.88672 0.58594-1.4141v-8c0-0.53125-0.21094-1.0391-0.58594-1.4141s-0.88672-0.58594-1.4141-0.58594h-17.461l2.5-4c0.26172-0.46094 0.33984-1.0039 0.21875-1.5195-0.058594-0.15625-0.125-0.30859-0.19922-0.46094l2.2188-3.6602c0.27344-0.45313 0.35156-1.0039 0.21875-1.5195-0.125-0.51562-0.44531-0.96484-0.89844-1.2383l-1.7188-1.0195 17.602-29.098c0.30469-0.46094 0.40625-1.0312 0.27344-1.5664-0.12891-0.53906-0.47656-1-0.95312-1.2734zm-22.398 33.18 3.4219 2-1.0391 1.6992-3.4219-2zm-25.66-14c-2.6992-3.1797-3.5547-7.5352-2.2617-11.5 1.3008-3.9648 4.5586-6.9688 8.6211-7.9414l-4.2812 7.8594c-0.32031 0.59375-0.32031 1.3047 0 1.8984l3.3398 6.3789c0.38672 0.73438 1.1797 1.1562 2 1.0586l7.1797-0.64062c0.67188-0.058594 1.2617-0.44922 1.5781-1.0391l4.2188-7.8984c1.4336 3.9453 0.70312 8.3516-1.9258 11.625-2.625 3.2695-6.7734 4.9297-10.934 4.375-0.81641-0.10156-1.6055 0.30469-2 1.0195l-11.52 20.98h-6.8594l13.098-24c0.38672-0.73047 0.28125-1.6211-0.26172-2.2383zm-28.922 1.5195 0.80078 1.8398-5.5 2.3789-0.80078-1.8398zm-12.898-2-4.9805 2.1602c-3.6445 1.5859-6.6914 4.3008-8.6797 7.7383-0.91406-6.4336 2.5781-12.691 8.5391-15.281l12.539-5.4414c1.3633 1.9336 3.9062 2.6445 6.0742 1.6992 2.1758-0.94141 3.3867-3.2812 2.9062-5.6016l3.6797-1.7617 4 9.1406-3.7617 1.6211c-1.3633-1.9844-3.9492-2.7109-6.1484-1.7305-2.1992 0.98047-3.3906 3.3906-2.8281 5.7305l-6 2.5781c-1.4258-1.3047-3.4648-1.6836-5.2617-0.98047zm9.8008 10 5.4805-2.5391 8.3594 19.199h-6.5391zm-9.7188 71.781c0-2.2109 1.7891-4 4-4 2.2109 0 4 1.7891 4 4-0.019531 1.1016-0.48828 2.1406-1.3008 2.8789h-5.3984c-0.80859-0.73828-1.2812-1.7812-1.3008-2.8789zm26 2.1602-8.9805 0.71875h-5.5586c0.35156-0.92188 0.53125-1.8945 0.53906-2.8789 0-4.4219-3.5781-8-8-8s-8 3.5781-8 8c0.003906 0.98438 0.19531 1.9648 0.55859 2.8789h-5.5l-9.0586-0.71875v-4.3203l9.0586-0.76172c0.78125-0.058594 1.4492-0.57031 1.7188-1.3008 0.42969-1.1289 1.0195-2.1836 1.7617-3.1406 0.46875-0.60937 0.54688-1.4336 0.19922-2.1211l-4.1211-8.1211 3.6797-2.2812 5.3984 7.3203c0.46094 0.625 1.2383 0.92969 2 0.78125 1.5312-0.30078 3.1094-0.30078 4.6406 0 0.76172 0.14844 1.5391-0.15625 2-0.78125l5.3984-7.3203 3.6797 2.2812-4.1211 8.1211c-0.34375 0.68359-0.26953 1.5117 0.19922 2.1211 0.73828 0.95313 1.3281 2.0117 1.7617 3.1406 0.26953 0.73047 0.94141 1.2383 1.7188 1.3008l9.0586 0.76172zm-8.6211-10.922 0.62109-1.2188v2.3398c-0.18359-0.38672-0.39453-0.76172-0.62109-1.1211zm0.62109-13.16-3.7617-2.3203c-0.88672-0.54688-2.0469-0.32031-2.6602 0.51953l-1.5781 2.1211v-5.5195h8zm40 16.801v-22h8v22zm24-32.18-5.6797 32.18h-6.3203v-24c0-0.53125-0.21094-1.0391-0.58594-1.4141s-0.88672-0.58594-1.4141-0.58594h-12c-1.1055 0-2 0.89453-2 2v24h-24.379c-0.32812-0.49609-0.86328-0.82031-1.4609-0.87891l-6.1602-0.51953v-22.602c0-0.53125-0.21094-1.0391-0.58594-1.4141s-0.88672-0.58594-1.4141-0.58594h-12c-1.1055 0-2 0.89453-2 2v12.961l-0.19922 0.26172c-1.1953-0.14062-2.4062-0.14062-3.6016 0l-5.7812-7.8203-2.4219-13.578v-5.8203h88zm4-9.8203h-96v-4h96zm-27.141-8 4.5781-7.5586 0.66016 0.39844 4.4609 2.6992-2.6797 4.4609z"/>
</svg>
