<?xml version="1.0" encoding="UTF-8"?>
<svg width="128pt" height="128pt" version="1.1" viewBox="0 0 128 128" xmlns="http://www.w3.org/2000/svg">
 <path d="m91.312 85.668c0.058594-0.054688 20.098-19.336 17.852-44.047-0.19922-2.1836-0.57812-4.3008-1.125-6.3477-2.4453-9.1719-8.2227-16.676-15.887-21.664-7.6914-5.0078-17.273-7.4844-27.297-6.5742-2.5664 0.23438-5.168 0.69141-7.7891 1.3906-9.1211 2.4297-15.473 6.6133-19.867 11.117-7.6953 7.8867-9.3984 16.656-9.4727 18.711-0.035156 0.94141 0.25391 2.5039 0.58984 4.3359 0.77734 4.2344 1.7969 9.7812 0.085938 14.195-1.0781 2.7812-3.3047 6.1367-5.3945 9.2852-2.4062 3.625-4.6172 6.957-4.3633 7.918 0.51172 1.8438 6.6328 2.2617 6.6523 2.2617 0.74609 0.050781 1.3125 0.6875 1.2773 1.4336 0.003906 0.57812-0.058594 3.2969-1.375 4.2773 0.019531 0.015624 0.050781 0.039062 0.058593 0.10937 0.035157 0.28906 0.16016 0.62891 0.36719 0.96875 0.1875 0.3125 0.43359 0.60547 0.71875 0.83594l0.003906 0.003906 0.003906-0.003906c1.3555 1.0898 3.6992 1.8555 3.707 1.8555 0.71875 0.23438 1.1133 1.0039 0.87891 1.7266-0.16016 0.49219-0.57422 0.83203-1.0508 0.92188-0.27344 0.070313-1.6367 0.45703-1.5039 1.1992 0.13672 0.75781 0.36719 1.2969 0.72266 1.625 0.33984 0.3125 0.875 0.48438 1.6367 0.51562h0.003906c0.71875 0.03125 1.25-0.10547 1.6328-0.19922 1.4492-0.36719 2.125-0.53906 2.7383 1.2344l0.58594 1.168c0.17578 0.35156 0.1875 0.74609 0.058594 1.0859-0.003907 0.015626-2.0039 5.1953-0.31641 8.9023 0.77344 1.6992 1.6992 2.5312 2.7383 2.8438 1.1289 0.33594 2.5156 0.13672 4.0391-0.24219 3.4141-0.85547 10.121-2.7734 10.141-2.7773 0.72656-0.20703 1.4844 0.21484 1.6914 0.94141 0.03125 0.10938 0.046874 0.21875 0.050781 0.32422l1.1758 16.141h44.582l-8.9258-34.148c-0.12891-0.49219 0.03125-0.99219 0.37109-1.3242zm-1.1016-18.996c0.035156 0.15625 0.054687 0.30859 0.054687 0.45703 0 0.73047-0.375 1.543-0.96875 2.207-0.55859 0.625-1.332 1.1523-2.168 1.3672-0.27734 0.070313-0.55078 0.10938-0.82031 0.10938-1.5508 0-2.9805-1.3867-4.1484-3.1992-1.6133-2.5078-2.8242-5.9648-2.9727-7.2656-0.089844-0.77734-0.25-1.4844-0.46875-2.1133-0.53516-1.543-1.4414-2.6914-2.5977-3.4023-1.1602-0.71094-2.6016-0.99609-4.1953-0.80859-0.61719 0.070312-1.2539 0.21094-1.9023 0.42187-1.832 2.0898-4.3906 3.3242-7.0781 3.7227-1.7188 0.25391-3.4961 0.16797-5.1719-0.25391-1.6836-0.42578-3.2734-1.1914-4.6016-2.2969-1.5781-1.3125-2.7773-3.0859-3.3398-5.3125-0.33203 0.10156-0.66406 0.18359-0.99609 0.24609-1.8359 0.33984-3.6523 0.066407-5.207-0.73438-1.5586-0.80469-2.8516-2.1367-3.6445-3.9141-0.23047-0.51172-0.41406-1.0625-0.55469-1.6484-1.5703-0.73828-2.7891-1.9961-3.5898-3.5-0.75-1.4102-1.1328-3.0312-1.0898-4.6328 0.042969-1.625 0.52344-3.2344 1.4961-4.5781 0.89453-1.2344 2.1953-2.2422 3.9492-2.8359 0.074219-1.0586 0.31641-2.0664 0.69922-3 0.80078-1.9531 2.1992-3.5859 3.8828-4.7305 1.6875-1.1484 3.6719-1.8086 5.6289-1.8125 0.82422 0 1.6484 0.11328 2.4453 0.35938 2.2773-2.875 5.1172-4.4414 8.0977-4.8086 2.9805-0.36719 6.0781 0.47656 8.8828 2.4141 1.8516-1.0312 4.2461-1.4727 6.8281-1.3828 2.9766 0.10547 6.2188 0.91016 9.1328 2.3281 2.9414 1.4297 5.5703 3.4844 7.2891 6.0742 1.2383 1.8633 2.0078 3.9961 2.0859 6.3672 1.9492 0.32422 3.5547 1.3281 4.7695 2.7188 0.92578 1.0625 1.6172 2.3477 2.0547 3.7305 0.43359 1.3711 0.61719 2.8398 0.52734 4.2852-0.13672 2.2578-0.94141 4.4453-2.5 6.0859 0.74609 1.4453 0.96484 3.4336 0.64844 5.4766-0.21484 1.3945-0.67578 2.8281-1.3789 4.1328-0.71484 1.3242-1.6797 2.5234-2.9023 3.4375-1.7266 1.2969-3.9414 2.0039-6.6289 1.668-1.2852 0.80078-0.69141 2.0391-0.16016 3.1484 0.22656 0.46875 0.44531 0.92188 0.58594 1.3828 0.011718 0.035157 0.019531 0.070313 0.023437 0.10547zm-1.7773 0.45703v-0.054687c-0.10156-0.31641-0.28516-0.69922-0.47656-1.0977v-0.003906c-0.80469-1.6758-1.6953-3.5234 0.16406-5.0312-1.9453-1.4688-2.7852-3.1406-3.0781-3.8594-1.5312 0.15234-2.6562-0.30078-2.6641-0.30469-0.35156-0.13672-0.52734-0.53516-0.38672-0.88672 0.13672-0.35156 0.53516-0.52734 0.88672-0.38672 0.007813 0.003906 3.3945 1.3711 6.0078-2.375 0.21484-0.30859 0.64453-0.38672 0.95312-0.17188 0.30859 0.21484 0.38672 0.64453 0.17188 0.95312-1.1406 1.6406-2.4258 2.4805-3.6133 2.8789 0.32031 0.71484 1.1562 2.168 3.0312 3.4023 0.09375-0.015625 0.19141-0.015625 0.29297 0 2.2891 0.35547 4.1484-0.21094 5.5742-1.2773 0.99219-0.74609 1.7891-1.7383 2.3867-2.8438 0.60547-1.125 1.0039-2.3516 1.1875-3.5469 0.29297-1.9023 0.0625-3.6836-0.69922-4.75-0.13672-0.16016-0.21094-0.35156-0.22266-0.54688-0.097657-0.085937-0.19922-0.17187-0.30469-0.25-1.0625-0.80469-2.5195-1.3008-4.0547-1.2969-1.5312 0.003906-3.1328 0.51172-4.4844 1.707-0.36328 0.32031-0.70703 0.69141-1.0273 1.1133-0.22656 0.30078-0.65625 0.35938-0.95703 0.13281-0.30078-0.22656-0.35938-0.65625-0.13281-0.95703 0.37891-0.49609 0.78516-0.93359 1.2109-1.3086 1.625-1.4375 3.5508-2.0469 5.3906-2.0508 1.8359-0.003906 3.5898 0.59375 4.8789 1.5742 0.078125 0.058594 0.15234 0.12109 0.23047 0.17969 1.2461-1.3125 1.8945-3.0898 2.0078-4.9375 0.074219-1.2188-0.082031-2.4609-0.44922-3.6289-0.36328-1.1484-0.93359-2.2148-1.6914-3.082-0.96484-1.1055-2.2383-1.8984-3.7812-2.1328-0.089844 0.015626-0.1875 0.011719-0.28125-0.011718-0.070312-0.019532-0.14062-0.03125-0.21875-0.046875l-0.074218-0.003907c-0.050782-0.003906-0.10156-0.011718-0.15234-0.023437-0.52344-0.046875-1.1797 0.015625-1.8086 0.23828-0.42578 0.14844-0.83594 0.375-1.1758 0.6875 0.72656 0.49219 1.2852 1.1133 1.6055 1.7148 0.12891 0.24219 0.22266 0.48438 0.27734 0.72266 0.082031 0.36719-0.14844 0.73438-0.51562 0.81641-0.36719 0.082032-0.73438-0.14844-0.81641-0.51562-0.027344-0.11719-0.078125-0.24609-0.14844-0.37891-0.29297-0.55078-0.90234-1.1406-1.7031-1.5352-0.80469-0.39844-1.8008-0.59375-2.8594-0.35156-0.38281 0.085938-0.77344 0.23047-1.1719 0.44141-0.33203 0.17578-0.74609 0.050781-0.92578-0.28125-0.17578-0.33203-0.050781-0.74609 0.28125-0.92578 0.51172-0.27344 1.0156-0.45703 1.5117-0.57031 1.1562-0.26172 2.25-0.13672 3.1914 0.21094 0.54297-0.63672 1.2578-1.0625 1.9961-1.3242 0.51953-0.18359 1.0547-0.28125 1.5586-0.31641-0.015625-2.1211-0.68359-4.0273-1.7891-5.6914-1.5273-2.3008-3.8945-4.1406-6.5625-5.4375-2.6914-1.3086-5.6719-2.0547-8.3984-2.1523-2.207-0.078126-4.2344 0.26953-5.7695 1.0938 0.54687 0.69141 1.2383 1.793 1.5586 3.2539 0.082031 0.36719-0.15234 0.73438-0.51953 0.8125-0.36719 0.082031-0.73438-0.15234-0.81641-0.51953-0.38281-1.7344-1.3711-2.8398-1.7422-3.2031-0.027344-0.015626-0.050781-0.03125-0.074218-0.050782l-0.16016-0.12109c-2.5117-1.8242-5.2812-2.6289-7.9141-2.3047-2.6211 0.32031-5.1289 1.7695-7.1328 4.4492l-0.12109 0.16406h-0.003906c-0.027344 0.039063-0.0625 0.078125-0.097656 0.11328l-0.015625 0.027343c-0.27734 0.48438-0.46875 1.1953-0.57031 1.9648-0.11328 0.84766-0.10937 1.7578 0.003907 2.5195 0.054687 0.375-0.20312 0.72266-0.57422 0.77734-0.375 0.054688-0.72266-0.20312-0.78125-0.57422-0.13281-0.875-0.13281-1.9219-0.003906-2.8984 0.085937-0.64844 0.22656-1.2695 0.42969-1.8047-0.61328-0.1875-1.2539-0.27344-1.8984-0.27344-1.5898 0.003906-3.2148 0.55078-4.6094 1.4961-1.3984 0.95313-2.5625 2.3008-3.2188 3.9102-0.28125 0.6875-0.47266 1.4297-0.55078 2.207 0.82812-0.046875 2-0.003906 3.0391 0.41797 0.34766 0.14062 0.51562 0.53906 0.375 0.89062-0.14062 0.34766-0.53906 0.51562-0.89062 0.375-0.96094-0.39453-2.1133-0.36328-2.7812-0.29297-0.11719 0.13672-0.27344 0.23828-0.46094 0.28906-1.6445 0.43359-2.8203 1.2812-3.5898 2.3398-0.75 1.0352-1.1172 2.2812-1.1523 3.5508-0.035156 1.293 0.27344 2.6016 0.875 3.7344 0.67578 1.2656 1.7148 2.3047 3.0547 2.8359 0.03125 0.007813 0.0625 0.015625 0.09375 0.027344 0.72266 0.25 1.9062 0.46094 3.1641 0.45703 0.96484-0.003906 1.9609-0.13281 2.8047-0.46484 0.35156-0.14062 0.74609 0.03125 0.88672 0.38281 0.14062 0.35156-0.03125 0.74609-0.38281 0.88672-1.0156 0.40234-2.1875 0.55859-3.3047 0.5625-0.86328 0.003906-1.7031-0.085938-2.4141-0.22266 0.085937 0.27734 0.1875 0.54297 0.30078 0.80078 0.61719 1.3828 1.6172 2.418 2.8164 3.0352 1.2031 0.62109 2.6094 0.82812 4.043 0.5625 0.52734-0.097657 1.0586-0.26172 1.5859-0.48828 0.089843-0.046876 0.1875-0.078126 0.29297-0.09375 0.5-0.074219 0.96094 0.27344 1.0352 0.76953 0.33594 2.2695 1.4219 4.0312 2.9141 5.2734 1.1055 0.92188 2.4453 1.5625 3.8789 1.9258 1.4453 0.36328 2.9766 0.4375 4.4648 0.21875 0.61719-0.089844 1.2266-0.23438 1.8164-0.42578-1.2188-0.23438-2.1602-0.77734-2.8672-1.3984-1.2227-1.0703-1.7539-2.4102-1.8477-2.7539-0.011719-0.039062-0.015626-0.066406-0.019532-0.078124-0.078125-0.37109 0.16016-0.73047 0.53125-0.80859s0.73047 0.16016 0.80859 0.53125v0c0.070312 0.25391 0.47266 1.2422 1.4297 2.082 0.94531 0.83203 2.4414 1.4805 4.7109 1.0352 0.57031-0.41797 1.0938-0.90234 1.5547-1.457 0.10156-0.125 0.24219-0.22266 0.40625-0.28125 0.86719-0.30078 1.7109-0.49609 2.5195-0.58984 2.0078-0.23438 3.8438 0.14062 5.3555 1.0664 1.5156 0.92969 2.6875 2.4023 3.3711 4.3672 0.26562 0.76562 0.45703 1.6016 0.55859 2.5 0.12891 1.1289 1.2227 4.1992 2.6953 6.4883 0.85938 1.3359 1.8008 2.3594 2.6133 2.3594 0.13281 0 0.25391-0.015625 0.37109-0.046875 0.46484-0.11719 0.91406-0.43359 1.2539-0.81641 0.30859-0.34375 0.50391-0.71484 0.50391-0.99219zm-19.344-32.883c0.21484-0.30859 0.64062-0.38672 0.94922-0.17578 0.3125 0.21484 0.38672 0.64063 0.17578 0.94922-0.003906 0.003907-1.043 1.4531-0.32422 3.7148 0.11328 0.35938-0.085937 0.74219-0.44531 0.85547-0.35937 0.11328-0.74219-0.085938-0.85547-0.44531-0.22266-0.70312-0.30859-1.3477-0.3125-1.9297-0.046875-0.023438-0.09375-0.046875-0.14062-0.066406-0.72656-0.32422-1.8164-0.38281-2.9062-0.066407-1.0938 0.32031-2.168 1.0234-2.8555 2.2383-0.078125 0.13672-0.15234 0.28516-0.22266 0.44531-0.15234 0.34375-0.55859 0.5-0.90234 0.34375-0.25-0.10938-0.52734-0.19922-0.82812-0.26172-1.1875-0.24219-2.6914-0.085937-4.1055 0.58203-1.4219 0.66797-2.7422 1.8516-3.5508 3.6641-0.25391 0.57031-0.46094 1.2031-0.60156 1.8984-0.074218 0.37109-0.4375 0.60937-0.80469 0.53125-0.37109-0.074219-0.60938-0.4375-0.53125-0.80469 0.16406-0.80078 0.39844-1.5273 0.69531-2.1836 0.96094-2.1445 2.5273-3.5508 4.2148-4.3438 1.6914-0.79688 3.5117-0.98047 4.9648-0.67969 0.17188 0.035156 0.33594 0.078125 0.49609 0.125 0.88281-1.5547 2.2617-2.4609 3.6562-2.8672 1.2891-0.37891 2.6133-0.32422 3.5898 0.027344 0.23828-0.98047 0.64844-1.5547 0.65234-1.5586zm13.012 10.789c0.09375-0.36719 0.46484-0.58984 0.83203-0.49609 0.36719 0.089844 0.58984 0.46484 0.5 0.83203-0.15625 0.62109-0.55859 1.2578-1.2461 1.7539-0.26953 0.19531-0.58203 0.37109-0.94141 0.51562 0.70703 0.77344 1.3672 1.7734 1.9297 3.0625 0.15234 0.34766-0.007812 0.75-0.35547 0.89844-0.34766 0.15234-0.75-0.007812-0.89844-0.35547-0.75391-1.7266-1.6797-2.8438-2.6445-3.5508-1.25-0.91797-2.5742-1.1484-3.6445-1.125-0.37891 0.007813-0.6875-0.29297-0.69531-0.66797-0.007812-0.37891 0.29297-0.6875 0.66797-0.69531 1.3047-0.027343 2.918 0.25391 4.4492 1.3672 0.55469-0.12109 0.99609-0.31641 1.3242-0.55859 0.40234-0.29297 0.63672-0.64453 0.71875-0.97656zm-21.004 6.3867c0-0.003906-0.003906-0.007813 0 0zm-18.238-15.688c-0.35156 0.13281-0.75-0.042969-0.88281-0.39844-0.13281-0.35156 0.042969-0.75 0.39453-0.88281 0.23828-0.089844 0.53125-0.11719 0.83984-0.078125 0.46484 0.058594 1.0156 0.26562 1.5039 0.61328 0.49219 0.35156 0.92969 0.85156 1.1758 1.5 0.17188 0.44922 0.24609 0.96484 0.17578 1.5391-0.046875 0.375-0.38672 0.64453-0.76172 0.59766s-0.64453-0.38672-0.59766-0.76172c0.042969-0.33594 0-0.63281-0.097656-0.88281-0.14062-0.36719-0.40234-0.66016-0.69531-0.87109-0.29687-0.21094-0.61328-0.33594-0.87109-0.36719-0.09375-0.011719-0.15625-0.011719-0.1875 0zm29.141-4.3008c-0.35938 0.12109-0.74609-0.074219-0.86328-0.42969-0.12109-0.35938 0.074219-0.74609 0.42969-0.86328 0.011719-0.003906 2.7773-0.96094 5.5977 0.070313 0.23047-1.1055 0.69141-2 1.293-2.7109 0.77344-0.91016 1.7695-1.5039 2.7969-1.8555 1.0156-0.34375 2.0625-0.44922 2.957-0.37891 0.92187 0.074219 1.7148 0.34766 2.1875 0.74609 0.28906 0.24219 0.32422 0.67578 0.082031 0.96484-0.24219 0.28906-0.67578 0.32422-0.96484 0.082032-0.25781-0.21875-0.76953-0.375-1.4102-0.42578-0.73047-0.058593-1.5859 0.027344-2.4102 0.30859-0.8125 0.27734-1.5938 0.74219-2.1914 1.4414-0.51953 0.61328-0.90625 1.4141-1.0586 2.4414 0.33203 0.20312 0.66016 0.44141 0.98047 0.72266 0.28516 0.25 0.3125 0.67969 0.0625 0.96484-0.25 0.28516-0.67969 0.3125-0.96484 0.0625-2.7734-2.4375-6.5156-1.1445-6.5273-1.1406zm-6.3125 11.23c-0.35938-0.11719-0.55078-0.50391-0.43359-0.86328 0.11719-0.35938 0.50391-0.55078 0.86328-0.43359 0.66406 0.22266 1.8789 1.2578 2.5664 2.9023 0.44922 1.0703 0.69922 2.418 0.46094 3.9766-0.054687 0.375-0.40625 0.63281-0.78125 0.57422-0.375-0.054687-0.63281-0.40625-0.57422-0.78125 0.19531-1.2852-0.007812-2.3789-0.37109-3.25-0.52344-1.25-1.3203-1.9961-1.7344-2.1328zm11.285-3.3984c-0.30859 0.21875-0.73438 0.14453-0.95312-0.16406-0.21875-0.30859-0.14453-0.73437 0.16797-0.95312 0.011719-0.007813 4-2.8594 8.1172-0.80078 0.23047 0.11328 0.36719 0.34375 0.37891 0.58203 0 0.011718 0.125 3.7891 4.1484 3.0977 0.37109-0.0625 0.72656 0.1875 0.78906 0.55859 0.0625 0.37109-0.1875 0.72656-0.55859 0.78906-4.5977 0.78906-5.5195-2.7148-5.6992-3.9648-3.2578-1.3789-6.375 0.84766-6.3867 0.85156zm-24.672-3.3672c0.10156 0.36328-0.10938 0.74219-0.47266 0.84766-0.36328 0.10547-0.74219-0.10938-0.84766-0.47266-0.30469-1.0586-0.13281-2.4375 0.46484-3.6914 0.33594-0.70703 0.8125-1.3789 1.4141-1.9375 0.61328-0.56641 1.3555-1.0195 2.2227-1.2695 1.2109-0.34766 2.6484-0.30078 4.2773 0.37109 1.875-1.9297 4.3086-2.043 5.6367-1.9297-0.070313-2.7383 2.7188-4.2031 2.7266-4.207 0.33203-0.17969 0.74609-0.058594 0.92578 0.27344 0.17969 0.33203 0.058593 0.74609-0.27344 0.92578-0.007812 0.003906-2.5234 1.3281-1.9141 3.6445 0.097656 0.36719-0.12109 0.73828-0.48828 0.83594-0.11328 0.03125-0.23047 0.027344-0.33984 0.003907-0.011718-0.003907-4.6055-1.2031-6.5469 3.3516-0.14844 0.34766-0.55078 0.50781-0.89844 0.36328-0.34766-0.14844-0.50781-0.55078-0.36328-0.89844 0.070312-0.16406 0.14453-0.32422 0.21875-0.47656 0.13281-0.27344 0.27734-0.52344 0.42578-0.76172-0.070312-0.027344-0.14453-0.050782-0.21484-0.070313-1.0703-0.33984-2.0078-0.33594-2.8008-0.10938-0.64844 0.1875-1.207 0.52344-1.668 0.95312-0.46875 0.4375-0.84375 0.96875-1.1094 1.5273-0.41797 0.875-0.57031 1.8008-0.43359 2.5234 0.011718 0.070313 0.027343 0.13672 0.046874 0.20313zm59.582 5.4805c2.1367 23.5-14.766 42.234-18.102 45.68l9.1484 35c0.050781 0.14453 0.078124 0.29688 0.078124 0.45703 0 0.75781-0.61328 1.3711-1.3711 1.3711h-47.629c-0.71484 0-1.3164-0.55078-1.3672-1.2734l-1.1484-15.781c-2.2109 0.625-6.1797 1.7305-8.6094 2.3398-1.9375 0.48438-3.7695 0.71875-5.4727 0.21094-1.793-0.53125-3.3164-1.8164-4.4648-4.3438-1.7656-3.8867-0.47266-8.7617 0.054688-10.406l-0.19531-0.39062c-0.51563 0.125-1.2031 0.25781-2.1797 0.21484-1.4453-0.0625-2.543-0.46875-3.3789-1.2344-0.82031-0.75391-1.3125-1.7969-1.5586-3.1562-0.23047-1.2617 0.21094-2.1875 0.85547-2.8516-0.66016-0.33984-1.3438-0.74609-1.9141-1.2031l0.003906-0.003907c-0.56641-0.45312-1.0234-0.99219-1.3594-1.5508-0.40625-0.67188-0.66016-1.3945-0.74219-2.0508-0.09375-0.76172 0.039062-1.4805 0.42188-2.0391 0.027344-0.046876 0.058594-0.09375 0.09375-0.13672 0.16406-0.20703 0.35938-0.37891 0.58594-0.51562 0.11328-0.066406 0.16406-0.45312 0.19141-0.87109-2.3242-0.32812-7.0469-1.3281-7.8164-4.125v-0.003906c-0.59375-2.1523 1.9492-5.9844 4.7148-10.152 2.0156-3.0391 4.1602-6.2734 5.125-8.7617 1.4297-3.6953 0.49219-8.8125-0.22656-12.715-0.36328-1.9883-0.67578-3.6875-0.63281-4.9219 0.082031-2.293 1.9297-12.004 10.246-20.523 4.6992-4.8125 11.461-9.2773 21.133-11.855 2.75-0.73047 5.5039-1.2148 8.2383-1.4648 10.648-0.96875 20.844 1.6719 29.031 7 8.2148 5.3516 14.414 13.41 17.043 23.262 0.57812 2.1719 0.98437 4.4414 1.1992 6.7969z"/>
</svg>
