<?xml version="1.0" encoding="UTF-8"?>
<svg width="128pt" height="128pt" version="1.1" viewBox="0 0 128 128" xmlns="http://www.w3.org/2000/svg">
 <path d="m88.684 100.24c-1.4766 0-2.6641 1.1953-2.6641 2.6641v7.8398c0 0.70312-0.55078 1.2539-1.2539 1.2539h-59.066c-0.41016 0-0.74609-0.34375-0.74609-0.77344l-0.003906-82.691c0-0.39062 0.35547-0.74609 0.74609-0.74609h31.973c0.69531 0 1.3398 0.035156 1.9766 0.085938 3.1094 2.9766 5.7812 6.7266 5.625 11.227v3.3047c0 3.3711 2.7383 6.1094 6.1094 6.1094 4.3398-0.24609 9.0586 0.28906 12.27 3.5195l2.2852 2.125c0.10547 0.66016 0.070312 1.6016 0.078125 2.2656 0 1.4766 1.1953 2.6641 2.6641 2.6641 3.3594-0.12109 2.7031-3.9297 2.5039-6.2617-0.73438-7.7305-4.2109-15.023-9.7109-20.504-5.5898-5.5898-12.969-9.0547-20.676-9.7031-0.58984-0.33594-33.547-0.10547-35.102-0.17188-3.3555 0-6.0781 2.7305-6.0781 6.0781v82.695c0 3.3633 2.7266 6.1055 6.0781 6.1055h59.066c3.6367 0 6.5898-2.9531 6.5898-6.5859v-7.8398c0-1.4766-1.1953-2.6641-2.6641-2.6641zm-4.6641-54.52c-3.6914-2.3281-8.3281-2.7266-12.637-2.5391-0.42969 0-0.78125-0.35156-0.78125-0.78125 0.18359-4.3008-0.21094-8.9297-2.5234-12.609 7.1562 2.7695 13.164 8.75 15.941 15.93z"/>
 <path d="m45.27 16h53.176c0.39453 0 0.74609 0.35938 0.74609 0.77344v42.504c0.046875 3.4805 5.2812 3.5195 5.3359 0v-42.504c0-3.3633-2.7266-6.1055-6.0781-6.1055h-53.176c-3.4844 0.058593-3.5234 5.2695 0 5.3359z"/>
 <path d="m78.355 64.359c0-1.4766-1.1953-2.6641-2.6641-2.6641h-40.395c-1.4766 0-2.6641 1.1953-2.6641 2.6641 0 1.4766 1.1953 2.6641 2.6641 2.6641h40.395c1.4766 0 2.6641-1.1953 2.6641-2.6641z"/>
 <path d="m32.625 96.16c0 1.4766 1.1953 2.6641 2.6641 2.6641h40.395c1.4766 0 2.6641-1.1953 2.6641-2.6641 0-1.4766-1.1953-2.6641-2.6641-2.6641h-40.395c-1.4766 0-2.6641 1.1953-2.6641 2.6641z"/>
 <path d="m107.02 76.789-10.82-11.855c-2.3789-2.7969-7.3359-0.87891-7.1992 2.7969v4.8945h-20.816c-2.8398 0-5.1484 2.3086-5.1484 5.1484v4.9688c0 2.8398 2.3086 5.1484 5.1484 5.1484h20.816v4.8945c-0.125 3.6641 4.8047 5.6016 7.1992 2.7969l10.82-11.855c1.8086-1.9805 1.8086-4.9648 0-6.9492zm-12.684 12.934v-4.4883c0-1.4766-1.1953-2.6641-2.6641-2.6641l-23.301 0.17969-0.17969-4.7891h23.48c1.4766 0 2.6641-1.1953 2.6641-2.6641v-4.5352l8.7461 9.3867-8.7461 9.5859z"/>
</svg>
