<?xml version="1.0" encoding="UTF-8"?>
<svg width="128pt" height="128pt" version="1.1" viewBox="0 0 128 128" xmlns="http://www.w3.org/2000/svg">
 <path d="m28.195 5.6797c-0.25-0.625 0.054688-1.3359 0.67969-1.5898 0.625-0.25 1.3359 0.054687 1.5898 0.67969 3.6641 9.1641 6.0547 18.066 6.2695 27.344 0.21484 9.2891-1.7656 18.914-6.8398 29.496-5.0703 10.57-7.8398 21.496-7.7461 32.113 0.089843 9.9062 2.6836 19.555 8.25 28.395 0.35937 0.57031 0.19141 1.3242-0.38672 1.6836-0.57031 0.35938-1.3242 0.19141-1.6836-0.38672-5.8164-9.2383-8.5234-19.324-8.625-29.676-0.10547-11 2.7539-22.297 7.9805-33.191 4.8984-10.211 6.8047-19.477 6.6016-28.395-0.19922-8.9297-2.5234-17.566-6.0898-26.48zm52.234 73.953c0.37109-0.35547 0.94531-0.44922 1.4258-0.19531 0.59375 0.32031 0.81641 1.0586 0.49609 1.6562-1.9844 3.6836-1.9297 6.3516-0.99609 7.9297 0.28906 0.48828 0.67188 0.87109 1.0898 1.1289 0.41016 0.25391 2.4297 0.40625 2.8867 0.43359 2.5742 0.070312 0.48828-0.42969 1.1133-1.5664 0.89453-1.625 1.8945-2.6641 2.9102-3.2695 0.83984-0.50391 1.6914-0.71094 2.5-0.69922 0.81641 0.011719 1.5742 0.23828 2.2383 0.60938 0.89844 0.5 1.6484 1.2617 2.1406 2.0781 0.34375 0.57812 0.15625 1.3281-0.42188 1.6758-0.57812 0.34375-1.3281 0.15625-1.6758-0.42187-0.28516-0.46875-0.71094-0.91016-1.2188-1.1914-0.33984-0.19141-0.71484-0.30469-1.0898-0.30859-0.37891-0.003907-0.78906 0.10156-1.2188 0.35547-0.66016 0.39453-1.3516 1.1406-2.0195 2.3516-1.1367 2.0547-3.0781 2.9648-4.9844 2.8281-0.85547-0.058594-1.6953-0.32812-2.4492-0.80078-0.74609-0.46484-1.4062-1.125-1.9062-1.9648-1.0391-1.7539-1.3867-4.3281-0.26562-7.5898-0.078125 0.058594-0.16016 0.11328-0.24609 0.16406v-0.003907l-0.003906 0.003907c-0.63672 0.38672-1.4141 0.52344-2.1953 0.34375-1.1953 2.9688-3.3516 5.3438-6.0117 6.8438-2.9609 1.6719-6.5391 2.2617-10.094 1.375-3.6953-0.92188-6.6719-3.25-8.4883-6.2695-1.8047-3-2.4766-6.6797-1.5898-10.344 0.011719-0.066406 0.023437-0.125 0.046875-0.18359 0.93359-3.6484 3.25-6.5898 6.2461-8.3906 1.3086-0.78516 2.7461-1.3555 4.2539-1.6758 1.0352-4.6367 3.5898-8.1367 6.8633-10.555 4.0195-2.9688 9.1211-4.3008 13.789-4.0898 1.2852 0.054687 2.5703 0.25 3.8086 0.55469 2.7969 0.69531 5.3984 1.9883 7.2891 3.6836 2.0039 1.7969 3.2266 4.0508 3.1133 6.5586-0.019531 0.47656-0.089844 0.94922-0.21094 1.4297l-0.98828 3.9844c0.51562-0.050781 1.0547-0.003906 1.5664 0.12109 1.0234 0.25391 1.9883 0.85156 2.4961 1.6914l4.1484 6.8945c0.50391 0.83984 0.625 1.8086 0.40625 2.6953-0.21875 0.89062-0.78125 1.6953-1.6211 2.1992l-0.96094 0.57812c-0.83984 0.50391-1.8086 0.625-2.6953 0.40625-0.85547-0.21484-1.6367-0.73828-2.1445-1.5352-0.019531-0.023438-0.035157-0.054688-0.054688-0.078125l-0.98438-1.6367-5.6406 3.1836c-0.64062 0.35938-1.3008 0.58984-1.9961 0.68359-0.69141 0.089843-1.4062 0.046874-2.1484-0.14063-1.3711-0.33984-2.4688-1.2031-3.1445-2.3242-0.35938-0.59375-0.59375-1.2656-0.69141-1.9688zm3.6914-16.301c0.16016-0.65625 0.82422-1.0547 1.4805-0.89453s1.0547 0.82422 0.89453 1.4766l-2.8945 11.648c-0.17578 0.71094-0.046874 1.4297 0.30469 2.0195 0.35547 0.58594 0.92578 1.0391 1.6367 1.2148 0.45312 0.10938 0.87109 0.14062 1.2539 0.089844 0.37891-0.050781 0.75-0.17969 1.1133-0.38672l5.7383-3.2461v-0.003906l0.035156-0.023438c0.35156-0.21094 0.83594-0.35156 1.2852-0.35156 0.61328 0 1.2109 0.23438 1.5781 0.81641l0.023437 0.035156h0.003907l1.25 2.0781 0.03125 0.050781c0.15625 0.23438 0.39453 0.39453 0.66016 0.46094 0.28125 0.070313 0.58594 0.035156 0.85156-0.125l0.96094-0.57812c0.26562-0.16016 0.44141-0.41016 0.51172-0.69141 0.070312-0.28125 0.035156-0.58594-0.125-0.85156l-4.1484-6.8945c-0.16016-0.26562-0.54688-0.46875-0.98047-0.57812-0.44141-0.10938-0.87891-0.10547-1.1445 0.050782l-0.55469 0.33594-0.53516 2.1484c-0.14062 0.55469-0.53125 1.1562-1.0586 1.6055v-0.003906l-0.003907 0.003906c-0.46094 0.38672-1.0508 0.68359-1.6992 0.76953-0.67188 0.089844-1.2852-0.375-1.375-1.0469-0.089844-0.67188 0.375-1.2852 1.0469-1.375 0.17188-0.023438 0.32812-0.10938 0.46875-0.22656v-0.003906c0.14453-0.12109 0.23828-0.23438 0.26172-0.30859l2.2383-9.0156c0.078125-0.32422 0.125-0.64453 0.14062-0.94922 0.074218-1.7109-0.82812-3.3086-2.3086-4.6406-1.5938-1.4297-3.8203-2.5312-6.2344-3.1289-1.0938-0.26953-2.2188-0.44141-3.3359-0.48828-4.1562-0.18359-8.6797 0.98828-12.234 3.6133-2.6289 1.9453-4.7305 4.6992-5.7305 8.3008 1.1562-0.019531 2.3281 0.10547 3.5 0.38672 0.058594 0.011719 0.125 0.023438 0.17969 0.046875 1.8867 0.48047 3.5742 1.3281 5.0234 2.4492 0.77344 0.60156 1.4766 1.2734 2.1016 2.0156 0.24609-0.51562 0.82031-0.80469 1.3945-0.66406 0.65625 0.16016 1.0547 0.82422 0.89453 1.4766l-0.58594 2.3594c-0.003906 0.019531-0.011718 0.039062-0.015625 0.058594l-1.7891 7.1953c-0.03125 0.12891-0.003907 0.26562 0.058593 0.375 0.070313 0.10938 0.17578 0.19922 0.30469 0.23047l2.4531 0.60938c0.046875 0.011718 0.085937 0.015625 0.12891 0.03125 0.11328 0.015625 0.23438-0.011719 0.32812-0.066406v-0.003907c0.10156-0.058593 0.17578-0.14844 0.21484-0.26172 0.011719-0.046874 0.019531-0.089843 0.035156-0.12891l2.7891-11.215c0.11328-0.46484-0.17578-0.68359-0.69531-1.0781-0.14844-0.11328-0.30859-0.23438-0.46484-0.35547l-7.6016-5.9766c-0.53125-0.41406-0.625-1.1836-0.20312-1.7148 0.41406-0.53125 1.1836-0.625 1.7148-0.20312l7.6016 5.9766c0.16016 0.125 0.29688 0.23047 0.42578 0.32422 0.84375 0.63672 1.4531 1.1016 1.6719 1.8555zm-9.9688 19.25-0.16406-0.039062c-0.78906-0.19531-1.4258-0.69531-1.8164-1.3398s-0.53516-1.4336-0.33594-2.2266l1.6797-6.7539c-0.72656-1.2148-1.6719-2.2969-2.8008-3.1719-1.2109-0.93359-2.625-1.6406-4.2031-2.0352h-0.003907c-3.0391-0.75391-6.0938-0.21094-8.5859 1.2891-2.4844 1.4961-4.4062 3.9414-5.1602 6.9766-0.75391 3.0391-0.21094 6.0938 1.2891 8.5859 1.4961 2.4883 3.9414 4.4062 6.9766 5.1602 2.9336 0.73047 5.8789 0.25 8.3164-1.125 2.0898-1.1797 3.8086-3.0195 4.8086-5.3203zm0.73828 27.07c7.9102-0.58594 14.926-3.3359 20.461-7.6758 6.6133-5.1836 11.109-12.625 12.488-21.316 0.23438-1.4766 0.37891-2.9844 0.42969-4.5234 0.30469-9.2656-2.7617-17.469-7.8516-24.309-4.8633-6.5391-11.586-11.824-18.98-15.59 0.41406-0.10156 0.82812-0.21094 1.2383-0.34375 1.8945-0.60547 3.6914-1.5508 5.2695-2.8164 3.4961-2.8047 5.9688-7.1797 6.2695-12.922 0.035156-0.38672-0.10938-0.77344-0.42578-1.0469l-16.59-14.07c-0.51562-0.43359-1.2852-0.37109-1.7188 0.14453-0.43359 0.51562-0.37109 1.2852 0.14453 1.7266l16.113 13.676c-0.37891 4.7031-2.4453 8.2852-5.3242 10.594-1.3438 1.0781-2.8711 1.8867-4.4766 2.3945-1.5898 0.50391-3.2656 0.73047-4.9492 0.65625-0.089843-0.015625-0.18359-0.019531-0.27344-0.015625-3.75-0.23828-7.4805-1.9883-10.227-5.4102-0.42578-0.52344-1.1914-0.60938-1.7148-0.18359-0.52344 0.42578-0.60938 1.1914-0.18359 1.7148 3.1953 3.9805 7.5469 6.0195 11.934 6.3164 8.5664 3.625 16.492 9.3164 21.941 16.637 4.7812 6.4258 7.6562 14.113 7.3711 22.781-0.046876 1.4336-0.17969 2.8438-0.39844 4.2188-1.2852 8.0703-5.4492 14.969-11.586 19.773-6.1562 4.8242-14.301 7.5508-23.504 7.25-1.8047-0.058594-3.6562-0.23438-5.5469-0.53516-0.75-0.12109-1.5234-0.35547-2.2969-0.67188-0.84375-0.35156-1.6836-0.80078-2.4648-1.3047-0.56641-0.36328-1.3203-0.20312-1.6914 0.35938-0.36328 0.56641-0.20312 1.3203 0.35938 1.6914 0.90625 0.58594 1.875 1.1094 2.8633 1.5156 0.94141 0.38672 1.8984 0.67578 2.8398 0.82422 1.9844 0.31641 3.9336 0.5 5.8516 0.56641 0.72656 0.023438 1.4414 0.03125 2.1484 0.015626l-1.5742 12.199c-0.085938 0.67188 0.39062 1.2812 1.0547 1.3633 0.67188 0.085937 1.2812-0.39063 1.3633-1.0547z" fill-rule="evenodd"/>
</svg>
