<?xml version="1.0" encoding="UTF-8"?>
<svg width="128pt" height="128pt" version="1.1" viewBox="0 0 128 128" xmlns="http://www.w3.org/2000/svg">
 <path d="m62 93.113c-14.07-1.0234-25.184-12.785-25.184-27.117 0-1.1055 0.89453-2 2-2 1.1055 0 2.0039 0.89453 2.0039 2 0 12.801 10.387 23.184 23.18 23.184 12.801 0 23.184-10.387 23.184-23.184 0-1.1055 0.89453-2 2-2 1.1055 0 2.0039 0.89453 2.0039 2 0 14.328-11.113 26.09-25.184 27.117v10.887h11.328c1.1055 0 2 0.89453 2 2s-0.89453 2-2 2h-26.672c-1.1016 0-1.9961-0.89453-1.9961-2s0.89453-2 1.9961-2h11.336zm20.301-51.117v24.293c0 4.7734-1.8984 9.3555-5.2734 12.73s-7.9531 5.2734-12.73 5.2734h-0.58984c-4.7734 0-9.3516-1.8984-12.73-5.2734-3.375-3.375-5.2695-7.9531-5.2695-12.73v-24.293c0-4.7734 1.8945-9.3516 5.2695-12.727 3.3789-3.3789 7.9531-5.2734 12.73-5.2734h0.58984c4.7734 0 9.3555 1.8945 12.73 5.2734 3.375 3.375 5.2734 7.9492 5.2734 12.727zm-4.0039 0c0-3.7148-1.4766-7.2734-4.1016-9.8984s-6.1836-4.1016-9.8984-4.1016h-0.58984c-3.7148 0-7.2695 1.4766-9.8984 4.1016-2.625 2.625-4.1016 6.1836-4.1016 9.8984v24.293c0 3.7148 1.4766 7.2734 4.1016 9.8984 2.6289 2.625 6.1836 4.1016 9.8984 4.1016h0.58984c3.7148 0 7.2734-1.4766 9.8984-4.1016s4.1016-6.1836 4.1016-9.8984zm-18.742 0.74609c-1.1016 0-2-0.89844-2-2.0039 0-1.1016 0.89844-1.9961 2-1.9961h8.8945c1.1016 0 1.9961 0.89453 1.9961 1.9961 0 1.1055-0.89453 2.0039-1.9961 2.0039zm0 19.574c-1.1016 0-2-0.89453-2-2 0-1.1055 0.89844-2 2-2h8.8945c1.1016 0 1.9961 0.89453 1.9961 2 0 1.1055-0.89453 2-1.9961 2zm0 9.7891c-1.1016 0-2-0.89844-2-2.0039 0-1.1016 0.89844-1.9961 2-1.9961h8.8945c1.1016 0 1.9961 0.89453 1.9961 1.9961 0 1.1055-0.89453 2.0039-1.9961 2.0039zm0-19.582c-1.1016 0-2-0.89453-2-2 0-1.1016 0.89844-2 2-2h8.8945c1.1016 0 1.9961 0.89844 1.9961 2 0 1.1055-0.89453 2-1.9961 2zm36.445 1.4688c0-1.1055 0.89453-2 2-2s2.0039 0.89453 2.0039 2v24c0 1.1055-0.89844 2-2.0039 2s-2-0.89453-2-2zm16 2.8008c0-1.1016 0.89844-2 2.0039-2 1.1016 0 1.9961 0.89844 1.9961 2v19.199c0 1.1055-0.89453 2-1.9961 2-1.1055 0-2.0039-0.89453-2.0039-2zm-8 4c0-1.1055 0.89844-2 2-2 1.1055 0 2 0.89453 2 2v11.199c0 1.1055-0.89453 2-2 2-1.1016 0-2-0.89453-2-2zm-76-6.8008c0-1.1055 0.89453-2 2-2s2.0039 0.89453 2.0039 2v24c0 1.1055-0.89844 2-2.0039 2s-2-0.89453-2-2zm-15.996 2.8008c0-1.1016 0.89453-2 1.9961-2 1.1055 0 2 0.89844 2 2v19.199c0 1.1055-0.89453 2-2 2-1.1016 0-1.9961-0.89453-1.9961-2zm7.9961 4c0-1.1055 0.89844-2 2.0039-2 1.1016 0 1.9961 0.89453 1.9961 2v11.199c0 1.1055-0.89453 2-1.9961 2-1.1055 0-2.0039-0.89453-2.0039-2z" fill-rule="evenodd"/>
</svg>
