<?xml version="1.0" encoding="UTF-8"?>
<svg width="128pt" height="128pt" version="1.1" viewBox="0 0 128 128" xmlns="http://www.w3.org/2000/svg">
 <path d="m59.652 12.488c-0.39453-0.39844-1.0469-0.39844-1.4414 0.003907l-7.875 8.0156c-2.8008 2.8516-4.3633 6.6836-4.3633 10.68v4.5234h4.5703v-1.4805c0-4.5234 1.7734-8.8711 4.9492-12.102l6.1367-6.25c0.39062-0.39453 0.39062-1.0352-0.003906-1.4297zm-7.0781 23.227v-1.4805c0-3.9883 1.5703-7.8242 4.3711-10.676l6.1367-6.25c1.1758-1.1953 1.1641-3.1094-0.019531-4.2891l-1.9648-1.9688c-1.1992-1.1953-3.1445-1.1914-4.3281 0.019531l-7.875 8.0195c-3.1719 3.2305-4.9492 7.5742-4.9492 12.102v4.5234h-0.25c-1.6836 0-3.0508 1.3633-3.0508 3.0508v3.2188c-1.1836 0.42188-2.0312 1.5508-2.0312 2.875v18.285c0 1.6836 1.3633 3.0508 3.0469 3.0508h1.2695v7.1094c0 0.55859 0.45312 1.0156 1.0156 1.0156h8.6367c0.55859 0 1.0156-0.45312 1.0156-1.0156v-7.1094h1.2695c1.6836 0 3.0508-1.3633 3.0508-3.0508v-2.0312h6.2969c3.5781 1.3008 7.8047 4.6289 11.289 9.0898 3.0391 3.8984 4.9766 7.9648 5.5781 11.227h-21.137c-0.55859 0-1.0156 0.45312-1.0156 1.0156v2.0352h-21.336c-0.55859 0-1.0156 0.45312-1.0156 1.0156 0 0.55859 0.45312 1.0156 1.0156 1.0156h21.336v2.0312c0 0.56641 0.45312 1.0195 1.0156 1.0195h21.031c-0.32812 3.4844-0.88672 6.7305-1.4492 9.1406h-6.3711c0-1.6797-1.3633-3.0469-3.0508-3.0469h-15.238v-3.0508c0-0.55859-0.45313-1.0156-1.0156-1.0156h-11.176c-0.55859 0-1.0156 0.45312-1.0156 1.0156v7.1094c0 0.42969 0.26953 0.80859 0.67188 0.95312l10.504 3.8203v5.3867h-13.203c-1.6836 0-3.0508 1.3633-3.0508 3.0508v4.0586c0 0.56641 0.45312 1.0195 1.0156 1.0195h44.699c0.55859 0 1.0156-0.45312 1.0156-1.0195v-4.0586c0-1.6836-1.3633-3.0508-3.0469-3.0508h-7.1094v-1.0156h10.156c2.0781 0 3.9453-1.2656 4.7188-3.1953 1.6602-4.1562 3.4102-13.645 3.4102-22.199 0-6.6914-3.5352-13.875-7.9336-19.508-3.2852-4.2109-7.5039-8.1367-12.09-10.676l1.8438-5.5352c0.53125-1.5898-0.32422-3.3086-1.9102-3.8516l-4.0664-1.375c-1.6016-0.53906-3.3359 0.32031-3.8711 1.9258l-2.1719 6.5117h-3.3281v-6.0938c0-1.3242-0.85156-2.4531-2.0312-2.875v-3.2188c0-1.6836-1.3633-3.0508-3.0508-3.0508zm1.2695 6.0938v-3.0469c0-0.55859-0.45312-1.0156-1.0156-1.0156h-9.1406c-0.56641 0-1.0195 0.45312-1.0195 1.0156v3.0469zm2.0352 3.0508c0-0.55859-0.45312-1.0156-1.0195-1.0156h-13.203c-0.55859 0-1.0156 0.45312-1.0156 1.0156v18.285c0 0.55859 0.45312 1.0156 1.0156 1.0156h13.203c0.56641 0 1.0195-0.45312 1.0195-1.0156zm2.0312 14.219v-6.0938h7.1094c0.30078 0 0.59375 0.046875 0.875 0.12891 1.2812 0.38672 2.5547 0.91016 3.8164 1.5586 4.5547 2.3438 8.8516 6.25 12.191 10.531 4.2656 5.4648 7.5 12.215 7.5 18.262 0 8.3867-1.7266 17.602-3.2656 21.445-0.46094 1.1602-1.5781 1.9219-2.8281 1.9219h-10.156v-6.0938h7.1719c0.46484 0 0.87109-0.32031 0.98438-0.76953 0.66406-2.625 1.3398-6.4062 1.7148-10.469 1.8945-0.34375 3.3359-2.0039 3.3359-4 0-1.9492-1.375-3.5781-3.2031-3.9766-0.58594-3.7852-2.7656-8.3438-6.0547-12.566-3.6797-4.7148-8.2734-8.3906-12.379-9.8164-0.10547-0.039063-0.21875-0.058594-0.33594-0.058594zm5.4766-8.125h1.6367c0.49609 0 0.98437 0.070313 1.4609 0.21484 1.0469 0.31641 2.0781 0.71094 3.1016 1.1797l1.75-5.2461c0.17578-0.53125-0.10938-1.1055-0.64063-1.2852l-4.0586-1.375c-0.53516-0.17969-1.1133 0.10547-1.2891 0.64062zm7.7305 47.746c0-0.55859-0.45313-1.0156-1.0156-1.0156h-15.238v12.191h16.254zm-18.285 3.6289v-8.7109h-9.1406v5.3867zm-1.2695-36.133h-6.6055v6.0938h6.6055zm9.3945 17.27v4.0586h21.336c1.125 0 2.0312-0.91016 2.0312-2.0312 0-1.1211-0.90625-2.0312-2.0312-2.0312zm-21.328 28.441c-0.55859 0-1.0156 0.45312-1.0156 1.0195v3.0469h42.664v-3.0469c0-0.56641-0.45312-1.0195-1.0156-1.0195z" fill-rule="evenodd"/>
 <path d="m49.781 57.559c0 0.83984-0.68359 1.5195-1.5234 1.5195-0.84375 0-1.5234-0.67969-1.5234-1.5195 0-0.84375 0.67969-1.5234 1.5234-1.5234 0.83984 0 1.5234 0.67969 1.5234 1.5234z"/>
 <path d="m49.781 51.465c0 0.83984-0.68359 1.5195-1.5234 1.5195-0.84375 0-1.5234-0.67969-1.5234-1.5195 0-0.84375 0.67969-1.5234 1.5234-1.5234 0.83984 0 1.5234 0.67969 1.5234 1.5234z"/>
</svg>
